<?xml version="1.0" standalone="no"?>
<!DOCTYPE svg PUBLIC "-//W3C//DTD SVG 1.1//EN" "http://www.w3.org/Graphics/SVG/1.1/DTD/svg11.dtd" >
<svg>
<metadata>
Created by FontForge 20090914 at Mon Aug  6 07:14:22 2012
 By www-data
Copyright (c) Cadson Demak Co.,Ltd. All rights reserved.
This font is an exclusive license to Sanook Online Limited
Muang Thai - Phatra Complex, Tower A, 
15-16th Floor, 252/19-20 Rachadapisek Road, 
Huaykwang, Huaykwang, Bangkok 10310 
Thailand.
</metadata>
<defs>
<font id="Sukhumvit-Bold" horiz-adv-x="487" >
  <font-face 
    font-family="Sukhumvit"
    font-weight="700"
    font-stretch="normal"
    units-per-em="1000"
    panose-1="2 0 8 3 0 0 0 2 0 4"
    ascent="800"
    descent="-200"
    x-height="448"
    cap-height="607"
    bbox="-554 -487 871 942"
    underline-thickness="20"
    underline-position="-113"
    unicode-range="U+0020-U+FB02"
  />
<missing-glyph horiz-adv-x="606" 
 />
    <glyph glyph-name="uni0E5A" unicode="&#xe2f;&#xe2f;" horiz-adv-x="724" 
d="M683 0h-119.999v347c-23.333 -37.333 -58.666 -56 -105.999 -56v-291h-120v347c-26.667 -42 -67.334 -63 -122.001 -63c-54 0 -97.667 16.667 -131 50c-31.333 32 -47 73 -47 123v54h118v-47c0 -26.667 7.66699 -47.667 23 -63c15.333 -16 35.666 -24 60.999 -24
c28.667 0 52.667 10.667 72 32c19.333 20.667 29 46 29 76v26h117v-132c27.333 0 52.333 11.333 75 34c22.667 22 34 46 34 72v26h117v-511z" />
    <glyph glyph-name="uni0E4F.liga" unicode="&#xe4f;&#x22;" horiz-adv-x="524" 
d="M459 200c0 -54 -19 -100 -57 -138s-83.667 -57 -137 -57s-99 19 -137 57s-57 84 -57 138c0 53.333 19 99 57 137s83.667 57 137 57s99 -19 137 -57s57 -83.667 57 -137zM381 83c32 32.667 48 71.667 48 117s-16 84 -48 116s-70.667 48 -116 48s-84 -16 -116 -48
s-48 -70.667 -48 -116s16 -84.333 48 -117c32 -32 70.667 -48 116 -48s84 16 116 48zM377 200c0 -31.333 -11 -58 -33 -80s-48.333 -33 -79 -33c-31.333 0 -58 11 -80 33s-33 48.333 -33 79c0 31.333 11 58 33 80s48.333 33 79 33c31.333 0 58 -11 80 -33s33 -48.333 33 -79
zM227 436h-62v173h62v-173zM372 436h-61v173h61v-173zM320 144c15.333 15.333 23 34 23 56c0 21.333 -7.66699 39.666 -23 54.999s-34 23 -56 23c-21.333 0 -39.666 -7.66699 -54.999 -23s-23 -34 -23 -56c0 -21.333 7.66699 -39.666 23 -54.999s34 -23 56 -23
c21.333 0 39.666 7.66699 54.999 23z" />
    <glyph glyph-name="uni0E24.liga" unicode="&#xe24;&#xe32;" horiz-adv-x="896" 
d="M857 -200h-119v527c0 65.333 -29 98 -87 98c-62.667 0 -114 -23.333 -154 -70c1.33301 -9.33301 2 -16.666 2 -21.999v-533h-120v527c0 68 -34 102 -102 102c-54 0 -93.333 -18.667 -118 -56l56 -72c-28 -18.667 -42 -44.334 -42 -77.001v-116c0 -10 4.66699 -15 14 -15
h38v-93h-74c-26.667 0 -49.667 9.66699 -69 29s-29 42.666 -29 69.999v116c0 35.333 14 65 42 89c0.666992 0 -19 22 -59 66c13.333 42 42 77.333 86 106c46 30.667 97.667 46 155 46c81.333 0 143 -27 185 -81c52 54 117.667 81 197 81c62 0 110.667 -18 146 -54
c34.667 -35.333 52 -84.666 52 -147.999v-520z" />
    <glyph glyph-name="uni0E26.liga" unicode="&#xe26;&#xe32;" horiz-adv-x="910" 
d="M871 -200l-119 -0.00195312v527c0 65.333 -29 98 -87 98c-60 0 -111.667 -23.667 -155 -71c1.33301 -9.33301 2 -17 2 -23v-531h-119v527c0 32 -9.66699 57 -29 75s-45 27 -77 27c-51.333 0 -89.333 -18.667 -114 -56l56 -72c-27.333 -18 -41 -43.667 -41 -77v-129
c0 -24.667 -8.66699 -46.667 -26 -66c-18 -19.333 -38.667 -29 -62 -29h-78v93h37c6.66699 0 10 3.66699 10 11v111c0 36.667 13.333 66.334 40 89.001c0.666992 0 -19 22 -59 66c13.333 42.667 41.333 78 84 106c44.667 30.667 95.667 46 153 46
c82 0 144.667 -27.667 188 -83c46 55.333 112 83 198 83c62 0 110.667 -18 146 -54c34.667 -35.333 52 -84.666 52 -147.999v-520z" />
    <glyph glyph-name="fi" unicode="fi" horiz-adv-x="580" 
d="M221 0l-116 -0.000976562v362h-86v86h86v62c0 46 12 82.333 36 109c24.667 28 60 42.333 106 43c32.667 -1.33301 61 -5.66602 85 -12.999l-9 -88c-13.333 7.33301 -30.333 11 -51 11c-34 0 -51 -23 -51 -69v-55h102v-86h-102v-362zM517 -0.000976562h-116v448h116v-448z
M517 528.999h-116v111h116v-111z" />
    <glyph glyph-name="fl" unicode="fl" horiz-adv-x="580" 
d="M221 0l-116 -0.000976562v362h-86v86h86v62c0 46 12 82.333 36 109c24.667 28 60 42.333 106 43c32.667 -1.33301 61 -5.66602 85 -12.999l-9 -88c-13.333 7.33301 -30.333 11 -51 11c-34 0 -51 -23 -51 -69v-55h102v-86h-102v-362zM517 -0.000976562h-116v652h116v-652z
" />
    <glyph glyph-name=".notdef" horiz-adv-x="606" 
 />
    <glyph glyph-name="space" unicode=" " horiz-adv-x="288" 
 />
    <glyph glyph-name="exclam" unicode="!" horiz-adv-x="342" 
d="M220 178h-99l-16 429h133zM232 0h-121v122h121v-122z" />
    <glyph glyph-name="quotedbl" unicode="&#x22;" horiz-adv-x="422" 
d="M344 389h-107v218h107v-218zM184 389h-106v218h106v-218z" />
    <glyph glyph-name="numbersign" unicode="#" 
d="M326 0h-76l25 178h-89l-26 -178h-76l25 178h-78v70h87l15 111h-76v69h87l24 179h77l-24 -179h89l24 179h76l-24 -179h70v-69h-80l-15 -111h70v-70h-80zM284 248l15 111h-88l-15 -111h88z" />
    <glyph glyph-name="dollar" unicode="$" 
d="M227 513c-32 -14 -48 -39.333 -48 -76c0 -25.333 16 -45.333 48 -60v136zM268 97c33.333 15.333 50 37.333 50 66s-16.667 51 -50 67v-133zM268 -78l-41 -0.000976562v68h-9c-41.333 0 -93.333 7.66699 -156 23l11 110c42 -24 88 -36.667 138 -38
c2.66699 0 8 0.666992 16 2v162l-60 26c-76.667 32.667 -115 85 -115 157c0 56 17.667 100 53 132c30.667 28.667 71.334 45.667 122.001 51v65h41v-63c51.333 0 98.666 -7.33301 141.999 -22l-12 -100c-40 17.333 -81 26 -123 26h-7v-161c58 -22 98 -42 120 -60
c38 -31.333 57 -73.666 57 -126.999c0 -106 -59 -166 -177 -180v-71z" />
    <glyph glyph-name="percent" unicode="%" horiz-adv-x="873" 
d="M580 155c0 -62.667 18.667 -94.666 56 -95.999c35.333 1.33301 53 31.333 53 90c0 59.333 -17.667 89.666 -53 90.999c-37.333 -2 -56 -30.333 -56 -85zM286 -18.999h-71l375 645h72zM384 457.001c0 -105.333 -48 -158.666 -144 -159.999
c-97.333 1.33301 -146 54.666 -146 159.999c0 106.667 48.667 160 146 160c96 0 144 -53.333 144 -160zM184 457.001c0 -58 18.667 -88 56 -90c36 1.33301 54 31.333 54 90c0 60 -18 90 -54 90c-37.333 0 -56 -30 -56 -90zM780 149.001c0 -104.667 -48 -157.667 -144 -159
c-97.333 1.33301 -146 54.333 -146 159c0 106.667 48.667 160 146 160c96 0 144 -53.333 144 -160z" />
    <glyph glyph-name="ampersand" unicode="&#x26;" horiz-adv-x="631" 
d="M244 267c-48.667 -24 -73 -56.668 -73 -98.001c0 -25.333 10 -46.666 30 -63.999c20 -16.667 44 -25 72 -25c46.667 0 82 12 106 36zM271 380.999c52.667 27.333 79 56.667 79 88c0 42 -22 63 -66 63c-20 0 -36.333 -5.33301 -49 -16c-14 -12 -21 -28 -21 -48
c0 -16 7 -31.667 21 -47zM626 0l-150.001 -0.000976562l-40 54c-44.667 -42.667 -99.667 -64 -165 -64c-62.667 0 -114 15.333 -154 46c-42 32 -63 75.333 -63 130c0 74.667 42.667 130.334 128 167.001c-56 49.333 -84 98 -84 146c0 43.333 19.667 78 59 104
c35.333 22.667 77 34 125 34c48.667 0 88.334 -10.333 119.001 -31c36.667 -24 55 -59.333 55 -106c0 -63.333 -39 -117 -117 -161l111 -122c23.333 28 36.333 72 39 132h106c-2.66699 -78.667 -28.667 -147.667 -78 -207z" />
    <glyph glyph-name="quotesingle" unicode="'" horiz-adv-x="246" 
d="M176 389h-106v218h106v-218z" />
    <glyph glyph-name="parenleft" unicode="(" horiz-adv-x="293" 
d="M175 -122c-92.667 118.667 -139 248.667 -139 390c0 137.333 46.333 267 139 389h110c-84 -131.333 -126 -261 -126 -389c0 -140.667 42 -270.667 126 -390h-110z" />
    <glyph glyph-name="parenright" unicode=")" horiz-adv-x="293" 
d="M8 -122c84 120.667 126 250.667 126 390c0 129.333 -42 259 -126 389h110c92.667 -122 139 -251.667 139 -389c0 -142.667 -46.333 -272.667 -139 -390h-110z" />
    <glyph glyph-name="asterisk" unicode="*" 
d="M385 320l-80 -58l-61 108l-66 -108l-80 58l86 93l-119 27l28 90l116 -49l-14 126h99l-15 -126l116 49l28 -90l-121 -27z" />
    <glyph glyph-name="plus" unicode="+" horiz-adv-x="525" 
d="M483 175h-175v-175h-90v175h-176v90h176v175h90v-175h175v-90z" />
    <glyph glyph-name="comma" unicode="," horiz-adv-x="246" 
d="M125 -96h-103l56 218h126z" />
    <glyph glyph-name="hyphen" unicode="-" horiz-adv-x="293" 
d="M261 186h-229v96h229v-96z" />
    <glyph glyph-name="period" unicode="." horiz-adv-x="246" 
d="M184 0h-122v122h122v-122z" />
    <glyph glyph-name="slash" unicode="/" horiz-adv-x="342" 
d="M111 -10h-91l212 627h91z" />
    <glyph glyph-name="zero" unicode="0" 
d="M243 527c-38.667 -2 -64.332 -30 -76.999 -84c-8 -30.667 -12 -77.667 -12 -141c0 -148 30 -222 90 -222c59.333 0 89 74 89 222c0 70 -4.33301 120.333 -13 151c-12.667 47.333 -38.334 72 -77.001 74zM455.002 302c0 -208 -70.667 -312.001 -212 -312.001
c-140.667 0 -211 104 -211 312c0 86.667 14.333 157.334 43 212.001c36 68.667 92 103 168 103c141.333 0 212 -105 212 -315z" />
    <glyph glyph-name="one" unicode="1" 
d="M356 0h-122v468l-103 -83l-60 79l177 143h108v-607z" />
    <glyph glyph-name="two" unicode="2" 
d="M441 0h-403.001v102l66 61c128 118.667 193.333 211 196 277c-2 54 -35 81 -99 81c-42.667 0 -89.334 -16 -140.001 -48l-9 101c60.667 28.667 120.334 43 179.001 43c124.667 0 188.334 -59 191.001 -177c-2.66699 -91.333 -79 -206 -229 -344h248v-96z" />
    <glyph glyph-name="three" unicode="3" 
d="M317 315c76.667 -12 114.999 -60.333 114.999 -145c0 -67.333 -27 -116.333 -81 -147c-39.333 -22 -89.666 -33 -150.999 -33c-56 0 -109 6.66699 -159 20l7 103c46 -18.667 91 -28 135 -28c31.333 0 59.333 7 84 21c28.667 16 43 37.667 43 65
c0 63.333 -44.333 95 -133 95h-59v96h55c90 0 135 26.333 135 79c0 53.333 -34.667 80 -104 80c-47.333 0 -93 -10.667 -137 -32l-7 98c55.333 20 112 30 170 30c130 0 196.667 -52 200 -156c-2 -70 -39.667 -118.333 -113 -145v-1z" />
    <glyph glyph-name="four" unicode="4" 
d="M277 216v264h-1l-151 -264h152zM394 0h-117v126h-261v98l227 383h151v-391h77v-90h-77v-126z" />
    <glyph glyph-name="five" unicode="5" 
d="M67 116c42.667 -20.667 84 -31 124 -31c36.667 0 66.667 8.33301 90 25c26 19.333 39.333 46.666 40 81.999c-2 70 -48.333 105 -139 105c-38.667 0 -75 -5.33301 -109 -16l6 326h349v-91h-234l-3 -129c28 4 46.667 6 56 6c57.333 0 103 -14.667 137 -44
c39.333 -34.667 59 -85.667 59 -153c0 -59.333 -19.667 -107.666 -59 -144.999c-42.667 -40.667 -102 -61 -178 -61c-48.667 0 -95.667 5.66699 -141 17z" />
    <glyph glyph-name="six" unicode="6" 
d="M402 497c-36.667 16 -72.001 24 -106.001 24c-47.333 0 -84 -19.667 -110 -59c-22 -34 -33.667 -76.667 -35 -128l2 -2c28 40.667 67.333 61 118 61c118 0 177 -61.667 177 -185c0 -68 -16.333 -120.667 -49 -158c-34.667 -40 -85.667 -60 -153 -60
c-137.333 0 -206 94 -206 282c0 96 16.667 173.667 50 233c42.667 74.667 109.334 112 200.001 112c44.667 0 87 -7.33301 127 -22zM161.999 188c0 -70 28 -106 84 -108c53.333 2 80 38.333 80 109c0 75.333 -27.333 113 -82 113s-82 -38 -82 -114z" />
    <glyph glyph-name="seven" unicode="7" 
d="M221 0h-132l225 511h-269v96h392v-101z" />
    <glyph glyph-name="eight" unicode="8" 
d="M338 325c78 -36.667 117 -89.001 117 -157.001c0 -60 -19.667 -105.333 -59 -136c-36 -28 -86 -42 -150 -42c-62.667 0 -113 13.667 -151 41c-42 30.667 -63 75 -63 133c0 66 37.333 116.333 112 151v1c-67.333 30 -101 77 -101 141c0 52.667 18.333 93 55 121
c34 26 80 39 138 39s105.333 -11.333 142 -34c40.667 -26 61 -63.333 61 -112c0 -67.333 -33.667 -115.666 -101 -144.999v-1zM159 453.999c0 -39.333 31.999 -70 95.999 -92c43.333 16.667 66 46 68 88c0 51.333 -25 77 -75 77c-23.333 0 -43.666 -6.33301 -60.999 -19
c-18.667 -14 -28 -32 -28 -54zM306.999 100.999c16.667 14.667 25.333 34.666 26 59.999c-2 53.333 -36 88.333 -102 105c-51.333 -23.333 -77 -56.666 -77 -99.999c0 -24 9.33301 -44.333 28 -61c18 -16.667 39.333 -25 64 -25s45 7 61 21z" />
    <glyph glyph-name="nine" unicode="9" 
d="M335 275c-27.333 -40.667 -65.332 -61 -113.999 -61c-120.667 0 -181 61.667 -181 185c0 68 16.333 120.667 49 158c34 40 84.333 60 151 60c138.667 0 208 -91.333 208 -274c0 -100 -16.667 -180 -50 -240c-42 -75.333 -108.667 -113 -200 -113
c-43.333 0 -85.666 7 -126.999 21l15 98c33.333 -16 68.666 -24 105.999 -24c49.333 0 86.666 19.667 111.999 59c20.667 32.667 31.667 75.667 33 129zM182.001 340c14.667 -23.333 35.333 -35.333 62 -36c54.667 2 82 40.333 82 115c0 70 -28 106 -84 108
c-53.333 -2 -80 -38.333 -80 -109c0 -31.333 6.66699 -57.333 20 -78z" />
    <glyph glyph-name="colon" unicode=":" horiz-adv-x="246" 
d="M184 326h-122v122h122v-122zM184 0h-122v122h122v-122z" />
    <glyph glyph-name="semicolon" unicode=";" horiz-adv-x="246" 
d="M125 -96h-103l56 218h126zM184 326h-122v122h122v-122z" />
    <glyph glyph-name="less" unicode="&#x3c;" horiz-adv-x="525" 
d="M483 -7l-441 189v75l441 190v-89l-324 -138l324 -138v-89z" />
    <glyph glyph-name="equal" unicode="=" horiz-adv-x="525" 
d="M483 269h-441v91h441v-91zM483 80h-441v90h441v-90z" />
    <glyph glyph-name="greater" unicode="&#x3e;" horiz-adv-x="525" 
d="M483 182l-441 -189v89l324 138l-324 138v89l441 -190v-75z" />
    <glyph glyph-name="question" unicode="?" horiz-adv-x="439" 
d="M268 177l-107 -0.000976562c0 38.667 7 72 21 100c12.667 25.333 35.667 56.333 69 93c24 26.667 36.667 52.667 38 78c-2 52.667 -35.333 79 -100 79c-46 0 -90.667 -11.667 -134 -35l-10 96c61.333 19.333 119 29 173 29c56 0 101.667 -12 137 -36
c40.667 -27.333 61 -66.666 61 -117.999c0 -40 -24.667 -87 -74 -141s-74 -99.333 -74 -136v-9zM276 -0.000976562h-122v122h122v-122z" />
    <glyph glyph-name="at" unicode="@" horiz-adv-x="699" 
d="M330 205c27.333 0 50.667 12.333 70 37c18 22.667 27 48 27 76c0 46.667 -21.333 70 -64 70c-28 0 -51.667 -12.333 -71 -37c-18 -22.667 -27 -47.667 -27 -75c0 -20 6 -36.667 18 -50c12 -14 27.667 -21 47 -21zM624.001 124
c-65.333 -89.333 -155.334 -134 -270.001 -134c-84.667 0 -157.334 26 -218.001 78c-68 58 -102 136.333 -102 235c0 88 31 162 93 222c64 61.333 145 92 243 92c81.333 0 149 -20.333 203 -61c61.333 -46 92 -110.667 92 -194c0 -73.333 -26.667 -134 -80 -182
c-45.333 -40 -91.666 -60 -138.999 -60c-29.333 0 -45 15 -47 45h-2c-22.667 -30 -51.667 -45 -87 -45c-37.333 0 -69 13.667 -95 41c-26.667 27.333 -40 61.333 -40 102c0 57.333 17 106.333 51 147c34 42 76.667 63 128 63c42 0 75.667 -18.667 101 -56l10 42h73l-48 -211
c-4 -12 -6 -22.667 -6 -32c0 -7.33301 4.33301 -11 13 -11c25.333 0 47.333 12.333 66 37c22 28.667 33 67.667 33 117c0 118.667 -75.333 178 -226 178c-71.333 0 -130.666 -23.333 -177.999 -70c-44.667 -45.333 -67 -100 -67 -164c0 -70 22 -126.333 66 -169
c43.333 -42.667 100 -64 170 -64c81.333 0 144.333 18 189 54h74z" />
    <glyph glyph-name="A" unicode="A" horiz-adv-x="631" 
d="M401 235l-88 250h-2l-87 -250h177zM622 0h-135l-52 139h-246l-53 -139h-126l236 607h137z" />
    <glyph glyph-name="B" unicode="B" horiz-adv-x="535" 
d="M251 96c84 0 126 28 126 84c0 60.667 -42 91 -126 91h-57v-175h57zM244 362c76 0 114 24.333 114 73c0 32.667 -12 54.667 -36 66c-14.667 6.66699 -39 10 -73 10h-55v-149h50zM72 0l0.000976562 606.999h212c127.333 0 192.666 -52 195.999 -156
c-2 -75.333 -42.333 -120.666 -121 -135.999v-1c42 -4 75.667 -18.333 101 -43c25.333 -25.333 38 -57 38 -95c0 -66 -25.333 -113.667 -76 -143c-36.667 -22 -82.667 -33 -138 -33h-212z" />
    <glyph glyph-name="C" unicode="C" horiz-adv-x="535" 
d="M514 9c-44 -12.667 -89.999 -19.001 -137.999 -19.001c-102 0 -182 24.667 -240 74c-62 52.667 -93 128.334 -93 227.001c0 217.333 111 326 333 326c44 0 89.667 -8.33301 137 -25l-9 -103c-37.333 21.333 -81 32 -131 32c-62.667 0 -112.334 -21 -149.001 -63
c-36 -40.667 -54 -92.667 -54 -156c0 -64 18.333 -115.667 55 -155c38 -41.333 88.333 -62 151 -62c54 0 98.333 8.33301 133 25z" />
    <glyph glyph-name="D" unicode="D" horiz-adv-x="631" 
d="M72 0v607h166c234 0 351 -101.333 351 -304c0 -202 -117 -303 -351 -303h-166zM262 96c55.333 0 101.666 18 138.999 54c40.667 38.667 61 89.667 61 153c0 64 -20.333 115.333 -61 154c-37.333 36 -83.666 54 -138.999 54h-68v-415h68z" />
    <glyph glyph-name="E" unicode="E" 
d="M432 0h-360v607h358v-96h-236v-149h216v-96h-216v-170h238v-96z" />
    <glyph glyph-name="F" unicode="F" horiz-adv-x="439" 
d="M194 0h-122v607h338v-96h-216v-149h205v-96h-205v-266z" />
    <glyph glyph-name="G" unicode="G" horiz-adv-x="631" 
d="M572 21c-70.667 -20.667 -136.002 -31.001 -196.002 -31.001c-102 0 -182 24.667 -240 74c-62 52.667 -93 128.334 -93 227.001c0 217.333 110 326 330 326c66.667 0 127 -8.33301 181 -25l-8 -103c-52 21.333 -104 32 -156 32c-69.333 0 -123.666 -21 -162.999 -63
c-38 -39.333 -57 -91.333 -57 -156c0 -64 18.333 -115.667 55 -155c38 -41.333 88.333 -62 151 -62c32.667 0 59.334 3 80.001 9v158h-129v96h245v-327z" />
    <glyph glyph-name="H" unicode="H" horiz-adv-x="631" 
d="M559 0h-122v266h-243v-266h-122v607h122v-245h243v245h122v-607z" />
    <glyph glyph-name="I" unicode="I" horiz-adv-x="246" 
d="M184 0h-122v607h122v-607z" />
    <glyph glyph-name="J" unicode="J" horiz-adv-x="342" 
d="M280 144c0 -37.333 -11.332 -70 -33.999 -98c-30 -37.333 -74 -56 -132 -56c-29.333 0 -60.333 3.66699 -93 11v105c15.333 -6.66699 34.666 -10 57.999 -10c34.667 0 57.667 12.333 69 37c6.66699 14 10 37 10 69v405h122v-463z" />
    <glyph glyph-name="K" unicode="K" horiz-adv-x="584" 
d="M573 0h-159l-218 282h-2v-282h-122v607h122v-261l219 261h150l-250 -286z" />
    <glyph glyph-name="L" unicode="L" horiz-adv-x="439" 
d="M430 0h-358v607h122v-511h236v-96z" />
    <glyph glyph-name="M" unicode="M" horiz-adv-x="824" 
d="M752 0h-116v501h-2l-164 -501h-116l-163 501l-2 -2v-499h-117v607h195l144 -460h2l144 460h195v-607z" />
    <glyph glyph-name="N" unicode="N" horiz-adv-x="631" 
d="M565 0h-148l-233 454h-1v-454h-117v607h150l231 -454h2v454h116v-607z" />
    <glyph glyph-name="O" unicode="O" horiz-adv-x="680" 
d="M560 77c-52.667 -57.333 -126.002 -86.334 -220.002 -87.001c-95.333 0.666992 -169 30 -221 88c-50.667 55.333 -76 131 -76 227s25.333 171.667 76 227c52.667 56.667 126.334 85 221.001 85s168.334 -28.667 221.001 -86c50.667 -55.333 76 -130.666 76 -225.999
c0 -96 -25.667 -172 -77 -228zM470.998 453.999c-30 44 -73.668 66.3311 -131.001 66.998c-56 -0.666992 -99.333 -23.334 -130 -68.001c-26.667 -39.333 -40 -88.666 -40 -147.999c0 -61.333 13 -111.666 39 -150.999c30.667 -46 74.334 -69 131.001 -69
c57.333 0 101 22.667 131 68c26 39.333 39 90 39 152c0 60.667 -13 110.334 -39 149.001z" />
    <glyph glyph-name="P" unicode="P" 
d="M226 326c77.333 0 116 30 116 90c0 63.333 -38.667 95 -116 95h-42v-185h42zM184 0h-122v607h154c168.667 0 253 -61.333 253 -184c0 -128.667 -78 -193 -234 -193h-51v-230z" />
    <glyph glyph-name="Q" unicode="Q" horiz-adv-x="680" 
d="M622 -115l-147.002 -0.00195312l-106 106c-6 -0.666992 -15.667 -1 -29 -1c-95.333 0.666992 -169 30 -221 88c-50.667 55.333 -76 131 -76 227s25.333 171.667 76 227c52.667 56.667 126.334 85 221.001 85s168.334 -28.667 221.001 -86
c50.667 -55.333 76 -130.666 76 -225.999c0 -135.333 -51 -229.666 -153 -282.999zM470.998 453.998c-30 44 -73.668 66.3311 -131.001 66.998c-56 -0.666992 -99.333 -23.334 -130 -68.001c-26.667 -39.333 -40 -88.666 -40 -147.999c0 -61.333 13 -111.666 39 -150.999
c30.667 -46 74.334 -69 131.001 -69c57.333 0 101 22.667 131 68c26 39.333 39 90 39 152c0 60.667 -13 110.334 -39 149.001z" />
    <glyph glyph-name="R" unicode="R" horiz-adv-x="535" 
d="M224 348c85.333 0 128 28 128 84c0 34.667 -14.333 57.667 -43 69c-16.667 6.66699 -45 10 -85 10h-40v-163h40zM516 0l-135.999 0.000976562l-73 189c-13.333 42 -41.333 63 -84 63h-39v-252h-122v607h155c87.333 0 148 -7.33301 182 -22c53.333 -23.333 80 -71 80 -143
c0 -36.667 -11 -67.667 -33 -93c-22.667 -26.667 -53.334 -42.334 -92.001 -47.001v-2c26.667 -3.33301 48 -24.333 64 -63z" />
    <glyph glyph-name="S" unicode="S" 
d="M313 342c88 -37.333 131.999 -93.667 131.999 -169c0 -62 -22.333 -109 -67 -141c-40 -28 -93.333 -42 -160 -42c-41.333 0 -93.333 7.66699 -156 23l11 110c45.333 -25.333 91.333 -38 138 -38c26.667 0 50.334 6 71.001 18c24 14.667 36 34.667 36 60
c0 28.667 -13.667 50 -41 64c-11.333 6 -35.333 16.667 -72 32c-32 13.333 -56.333 25.333 -73 36c-53.333 33.333 -80 79 -80 137c0 62.667 21.667 110 65 142c37.333 28.667 86.333 43 147 43c53.333 0 102 -7.33301 146 -22l-12 -100c-40 17.333 -81 26 -123 26
c-64 0 -96 -28 -96 -84c0 -26 28.667 -51 86 -75z" />
    <glyph glyph-name="T" unicode="T" 
d="M304 0h-121v511h-174v96h469v-96h-174v-511z" />
    <glyph glyph-name="U" unicode="U" horiz-adv-x="631" 
d="M563 219c0 -152.667 -79.333 -229 -238 -229c-171.333 0 -257 76.333 -257 229v388h122v-351c0 -114 42 -171 126 -171s126 57 126 171v351h121v-388z" />
    <glyph glyph-name="V" unicode="V" horiz-adv-x="584" 
d="M369 0h-150l-208 607h130l156 -477h1l154 477h121z" />
    <glyph glyph-name="W" unicode="W" horiz-adv-x="873" 
d="M704 0h-156l-110 485h-1l-108 -485h-158l-160 607h127l113 -485h2l104 485h165l107 -485h1l114 485h118z" />
    <glyph glyph-name="X" unicode="X" horiz-adv-x="584" 
d="M573 0h-143l-140 236l-142 -236h-137l199 315l-181 292h141l127 -217l129 217h130l-182 -292z" />
    <glyph glyph-name="Y" unicode="Y" horiz-adv-x="584" 
d="M355 0h-122v240l-221 367h142l143 -255l146 255h129l-217 -367v-240z" />
    <glyph glyph-name="Z" unicode="Z" 
d="M454 0h-421v99l285 412h-273v96h403v-100l-288 -411h294v-96z" />
    <glyph glyph-name="bracketleft" unicode="[" horiz-adv-x="293" 
d="M259 -122h-194v779h194v-85h-83v-608h83v-86z" />
    <glyph glyph-name="backslash" unicode="\" horiz-adv-x="342" 
d="M322 -10h-91l-212 627h91z" />
    <glyph glyph-name="bracketright" unicode="]" horiz-adv-x="293" 
d="M229 -122h-195v86h84v608h-84v85h195v-779z" />
    <glyph glyph-name="asciicircum" unicode="^" horiz-adv-x="525" 
d="M466 272h-90l-113 243l-113 -243h-91l163 335h82z" />
    <glyph glyph-name="underscore" unicode="_" horiz-adv-x="439" 
d="M437 -109h-435v44h435v-44z" />
    <glyph glyph-name="grave" unicode="`" horiz-adv-x="246" 
d="M218 508h-72l-119 127h119z" />
    <glyph glyph-name="a" unicode="a" 
d="M335 0c-3.33301 30 -5 52.333 -5 67h-2c-29.333 -51.333 -75.333 -77 -138 -77c-42.667 0 -79 11.667 -109 35c-32 24.667 -48 57.334 -48 98.001c0 102 75.667 153 227 153h64c0 35.333 -7.66699 60.666 -23 75.999c-15.333 14 -41 21 -77 21
c-50.667 0 -97 -16.333 -139 -49l-3 100c54 22.667 105.667 34 155 34c128.667 0 193 -63 193 -189v-57c0 -63.333 2.33301 -134 7 -212h-102zM254 207c-72.667 0 -109 -26 -109 -78c0 -36 24.333 -54 73 -54c35.333 0 62.333 13 81 39c16.667 24 25 55 25 93h-70z" />
    <glyph glyph-name="b" unicode="b" horiz-adv-x="535" 
d="M282 80c33.333 0 58.666 16.001 75.999 48.001c14.667 26 22 58.333 22 97c0 95.333 -32 143 -96 143c-34.667 0 -61.667 -16 -81 -48c-16 -26.667 -24 -58.334 -24 -95.001c0 -34.667 7.66699 -65.667 23 -93c18.667 -34.667 45.334 -52 80.001 -52zM175 0.000976562
l-113 0.000976562v652h116v-262h2c30 44.667 74.667 67 134 67c64 -0.666992 112.333 -23.334 145 -68.001c28.667 -39.333 43 -92 43 -158c0 -70 -13.667 -126 -41 -168c-32 -48.667 -81 -73 -147 -73c-57.333 0 -103 21.667 -137 65h-2v-55z" />
    <glyph glyph-name="c" unicode="c" horiz-adv-x="390" 
d="M370 4c-28.667 -9.33301 -67.334 -14 -116.001 -14c-70 0 -125 22.333 -165 67c-37.333 42.667 -56 99 -56 169c0 67.333 18.667 122.333 56 165c40 44.667 93.667 67 161 67c44.667 0 82.334 -5 113.001 -15l-11 -92c-24 11.333 -50.333 17 -79 17
c-35.333 0 -64 -13.333 -86 -40c-21.333 -26 -32 -60 -32 -102c0 -42.667 10 -77 30 -103c22 -28.667 52.333 -43 91 -43c30 0 59.667 7 89 21z" />
    <glyph glyph-name="d" unicode="d" horiz-adv-x="535" 
d="M253 80c36 0 63.334 17.332 82.001 51.999c14 26 21 57 21 93c0 36.667 -8.33301 68.667 -25 96c-19.333 31.333 -46 47 -80 47c-33.333 0 -58.333 -15.333 -75 -46c-14 -25.333 -21 -57.666 -21 -96.999c0 -36 6.33301 -67 19 -93c17.333 -34.667 43.666 -52 78.999 -52
zM473.001 -0.000976562l-113.001 -0.000976562v50h-2c-34.667 -40 -79 -60 -133 -60c-64 0 -113 22.667 -147 68c-30 40.667 -45 94.334 -45 161.001c0 70 13.667 125.333 41 166c32 48.667 81 73 147 73c56.667 0 101.334 -21 134.001 -63h2v257h116v-652z" />
    <glyph glyph-name="e" unicode="e" 
d="M343 268c-2.66699 68 -34.333 103 -95 105c-64 -2 -98.333 -37 -103 -105h198zM421.001 25c-41.333 -23.333 -92.667 -35 -154 -35c-156 0 -234 77.333 -234 232c0 68.667 17.333 124.334 52 167.001c37.333 46 89.333 69 156 69c78.667 0 135 -25.333 169 -76
c29.333 -42.667 44 -107.334 44 -194.001h-309c2.66699 -35.333 16 -63 40 -83c22.667 -20 51.667 -30 87 -30c50 0 99.667 15 149 45v-95z" />
    <glyph glyph-name="f" unicode="f" horiz-adv-x="342" 
d="M221 0l-116 -0.000976562v362h-86v86h86v62c0 46 12 82.333 36 109c24.667 28 60 42.333 106 43c32.667 -1.33301 61 -5.66602 85 -12.999l-9 -88c-13.333 7.33301 -30.333 11 -51 11c-34 0 -51 -23 -51 -69v-55h102v-86h-102v-362z" />
    <glyph glyph-name="g" unicode="g" horiz-adv-x="535" 
d="M357 229c0 90.667 -32.668 136.999 -98.001 138.999c-35.333 -0.666992 -62 -15 -80 -43c-16 -24 -24 -55 -24 -93c0 -36 8.33301 -67.667 25 -95c18.667 -31.333 43.334 -47 74.001 -47c34.667 0 61 13.667 79 41c16 24.667 24 57.334 24 98.001zM472.999 42.999
c0 -157.333 -78.667 -236 -236 -236c-50 0 -101.667 10 -155 30l10 100c45.333 -24.667 88.666 -38 129.999 -40c58.667 2 97.667 22.667 117 62c12 22.667 18 60 18 112h-2c-28 -47.333 -74.333 -71 -139 -71c-60.667 0 -107 22.333 -139 67
c-29.333 39.333 -44 90.333 -44 153c0 64 14.333 117.667 43 161c34 51.333 83 77 147 77c58.667 0 104.334 -23.667 137.001 -71h2v61h111v-405z" />
    <glyph glyph-name="h" unicode="h" horiz-adv-x="535" 
d="M473 0l-116.001 -0.00195312v239c0 40.667 -3 69.334 -9 86.001c-11.333 28.667 -33.666 43 -66.999 43c-35.333 0 -62.333 -17.333 -81 -52c-14.667 -27.333 -22 -59.666 -22 -96.999v-219h-116v652h116v-265h2c32 47.333 79 71 141 71c101.333 0 152 -58.667 152 -176
v-282z" />
    <glyph glyph-name="i" unicode="i" horiz-adv-x="246" 
d="M181 0h-116v448h116v-448zM181 529h-116v111h116v-111z" />
    <glyph glyph-name="j" unicode="j" horiz-adv-x="246" 
d="M181 -33c0 -103.333 -45.001 -156.667 -135.001 -160c-22 0 -41 2.33301 -57 7l4 83c30.667 0.666992 50.334 6.66699 59.001 18c8.66699 10 13 32.667 13 68v465h116v-481zM180.999 528.999h-116v111h116v-111z" />
    <glyph glyph-name="k" unicode="k" 
d="M480 0h-148l-149 217h-2v-217h-116v652h116v-383h2l139 179h137l-167 -200z" />
    <glyph glyph-name="l" unicode="l" horiz-adv-x="246" 
d="M181 0h-116v652h116v-652z" />
    <glyph glyph-name="m" unicode="m" horiz-adv-x="777" 
d="M717 0h-116.001v276c0 61.333 -22.333 92 -67 92c-58 0 -87 -50.333 -87 -151v-217h-117v276c0 28 -3 48.667 -9 62c-10 20 -29 30 -57 30c-58 0 -87 -50.333 -87 -151v-217h-117v448h109v-63h2c34 48.667 78.333 73 133 73c62 0 106 -26.333 132 -79
c26.667 52.667 73.334 79 140.001 79c94 0 141 -58.667 141 -176v-282z" />
    <glyph glyph-name="n" unicode="n" horiz-adv-x="535" 
d="M473 0l-116.001 -0.00195312v239c0 40.667 -3 69.334 -9 86.001c-11.333 28.667 -33.666 43 -66.999 43c-35.333 0 -62.333 -17.333 -81 -52c-14.667 -27.333 -22 -59.666 -22 -96.999v-219h-116v448h110v-61h2c36 47.333 83.667 71 143 71c104 0 156 -58.667 156 -176
v-282z" />
    <glyph glyph-name="o" unicode="o" horiz-adv-x="535" 
d="M441 58c-42.667 -44.667 -100.665 -67.335 -173.998 -68.002c-72.667 0.666992 -130.334 23.334 -173.001 68.001c-40.667 42 -61 96.333 -61 163c0 72.667 22.333 130.667 67 174c43.333 42 99 63 167 63c69.333 0 125.666 -21 168.999 -63
c44 -42.667 66 -100.667 66 -174c0 -67.333 -20.333 -121.666 -61 -162.999zM352.002 327.999c-20 26 -48.333 39.332 -85 39.999c-35.333 -0.666992 -63.333 -14.667 -84 -42c-18.667 -24.667 -28 -55 -28 -91c0 -45.333 8.66699 -81.666 26 -108.999
c19.333 -30.667 48 -46 86 -46c75.333 0 113 51.667 113 155c0 38 -9.33301 69 -28 93z" />
    <glyph glyph-name="p" unicode="p" horiz-adv-x="535" 
d="M178 -182h-115.999v630h111v-64h2c26 49.333 72.333 74 139 74c63.333 0 111.666 -22.667 144.999 -68c28.667 -40 43 -93 43 -159c0 -160.667 -63.667 -241 -191 -241c-50 0 -93.667 20.333 -131 61h-2v-233zM282.001 80c33.333 0 58.666 16.001 75.999 48.001
c14.667 26 22 58.333 22 97c0 95.333 -32 143 -96 143c-34.667 0 -61.667 -16 -81 -48c-16 -26.667 -24 -58.334 -24 -95.001c0 -34.667 7.66699 -65.667 23 -93c18.667 -34.667 45.334 -52 80.001 -52z" />
    <glyph glyph-name="q" unicode="q" horiz-adv-x="535" 
d="M473 -182h-116v233h-2c-35.333 -40.667 -79 -61 -131 -61c-63.333 0 -112 23.333 -146 70c-30 40.667 -45 93.667 -45 159c0 70 14 125.333 42 166c32 48.667 81.667 73 149 73c64 0 109.333 -24.667 136 -74h2v64h111v-630zM253 80c36 0 63.333 17.332 82 51.999
c14 26 21 57 21 93c0 36.667 -8.33301 68.667 -25 96c-19.333 31.333 -46 47 -80 47c-33.333 0 -58.333 -15.333 -75 -46c-14 -25.333 -21 -57.666 -21 -96.999c0 -36 7 -67.333 21 -94c17.333 -34 43 -51 77 -51z" />
    <glyph glyph-name="r" unicode="r" horiz-adv-x="342" 
d="M181 0l-116.001 -0.00195312v448h103v-102h2c2.66699 24.667 15 48.334 37 71.001c24.667 26.667 53 40.334 85 41.001c13.333 0 25.333 -1.33301 36 -4v-117c-11.333 6.66699 -28.666 10 -51.999 10c-63.333 0 -95 -61 -95 -183v-164z" />
    <glyph glyph-name="s" unicode="s" horiz-adv-x="390" 
d="M328 354c-36.667 12.667 -71.334 19.001 -104.001 19.001c-44 0 -67 -16.667 -69 -50c0.666992 -18 22.334 -33.667 65.001 -47c51.333 -15.333 87 -33.333 107 -54s30 -49.334 30 -86.001c0 -50 -19.333 -87.667 -58 -113c-32.667 -22 -75.667 -33 -129 -33
c-46 0 -90 6.33301 -132 19l7 95c36.667 -19.333 74.667 -29 114 -29c18.667 0 35 3.66699 49 11c18.667 10 28 24.333 28 43c0 22 -10.667 37.333 -32 46l-44 12c-23.333 6.66699 -42.333 13.667 -57 21c-46.667 23.333 -70 60.333 -70 111c0 45.333 17.667 80.333 53 105
c32 22.667 73 34 123 34c44 0 86.333 -5.66699 127 -17z" />
    <glyph glyph-name="t" unicode="t" horiz-adv-x="342" 
d="M328 0c-22 -6.66699 -50.668 -10 -86.001 -10c-94.667 0 -142 48.333 -142 145v227h-86v86h86v89l117 37v-126h103v-86h-103v-214c0 -45.333 18 -68 54 -68c22.667 0 40.334 4 53.001 12z" />
    <glyph glyph-name="u" unicode="u" horiz-adv-x="535" 
d="M473 0h-109.999v61h-2c-38 -47.333 -87 -71 -147 -71c-50.667 0 -89.334 17 -116.001 51c-24 30.667 -36 72 -36 124v283h116v-239c0 -86 25.333 -129 76 -129c38 0 66 18 84 54c12.667 25.333 19 57 19 95v219h116v-448z" />
    <glyph glyph-name="v" unicode="v" 
d="M310 0h-132l-166 448h126l111 -326h2l107 326h117z" />
    <glyph glyph-name="w" unicode="w" horiz-adv-x="777" 
d="M628 0h-138l-97 342h-2l-95 -342h-133l-151 448h123l99 -332h2l90 332h136l97 -332h2l93 332h111z" />
    <glyph glyph-name="x" unicode="x" 
d="M477 0h-139l-100 167l-100 -167h-128l154 235l-139 213h138l88 -146l86 146h123l-134 -213z" />
    <glyph glyph-name="y" unicode="y" 
d="M281 -68c-32.667 -83.333 -85.667 -125 -159 -125c-28 0 -55.667 4 -83 12l8 86c14 -5.33301 34 -8 60 -8c24 0 42.667 7.66699 56 23c13.333 14.667 20 33.667 20 57l-171 471h128l108 -327h2l107 327h119z" />
    <glyph glyph-name="z" unicode="z" horiz-adv-x="439" 
d="M405 0h-372v95l227 262h-217v91h354v-96l-222 -262h230v-90z" />
    <glyph glyph-name="braceleft" unicode="{" horiz-adv-x="293" 
d="M283 -122l-65 0.000976562c-36 0 -66 10 -90 30c-26 21.333 -39 50.666 -39 87.999v147c0 58 -23.667 87 -71 87v75c20 0 36.333 6.66699 49 20c14.667 14.667 22 35 22 61v154c0 37.333 13.333 67 40 89c24 18.667 53.667 28 89 28h65v-70h-39c-18 0 -30.333 -6 -37 -18
c-4.66699 -8.66699 -7 -23.667 -7 -45v-150c0 -36 -11.333 -63.333 -34 -82c-17.333 -14 -38.333 -21.667 -63 -23v-2c64.667 -6.66699 97 -43.667 97 -111v-145c0 -21.333 2.33301 -36.333 7 -45c6.66699 -12 19 -18 37 -18h39v-70z" />
    <glyph glyph-name="bar" unicode="|" horiz-adv-x="197" 
d="M144 -217h-91v869h91v-869z" />
    <glyph glyph-name="braceright" unicode="}" horiz-adv-x="293" 
d="M204 -4c0 -38 -13 -67.667 -39 -89c-23.333 -19.333 -53 -29 -89 -29h-65v70h39c18 0 30 5.66699 36 17c4.66699 8.66699 7 24 7 46v145c0 37.333 11.333 66.333 34 87c18 16 39.333 24 64 24v2c-65.333 6.66699 -98 41.667 -98 105v150c0 22.667 -2 38 -6 46
c-6 11.333 -18.333 17 -37 17h-39v70h65c36.667 0 66.667 -9.33301 90 -28c25.333 -21.333 38 -51 38 -89v-154c0 -28 8 -49 24 -63c13.333 -12 29.333 -18 48 -18v-75c-48 0 -72 -29 -72 -87v-147z" />
    <glyph glyph-name="asciitilde" unicode="~" horiz-adv-x="525" 
d="M463 221c-27.333 -51.333 -60.334 -77 -99.001 -77c-30 0 -64.333 10.333 -103 31c-39.333 20 -70.333 30 -93 30c-31.333 0 -56.333 -20.667 -75 -62l-31 76c24.667 50.667 59.667 76 105 76c26.667 0 60.334 -10 101.001 -30c41.333 -20 72 -30 92 -30
c23.333 0 47.333 20.667 72 62z" />
    <glyph glyph-name="uni007F" horiz-adv-x="500" 
 />
    <glyph glyph-name="nonbreakingspace" unicode="&#xa0;" horiz-adv-x="250" 
 />
    <glyph glyph-name="exclamdown" unicode="&#xa1;" horiz-adv-x="342" 
d="M237 -159h-133l18 428h96zM231 326h-122v122h122v-122z" />
    <glyph glyph-name="cent" unicode="&#xa2;" 
d="M300 368c-31.333 -4 -56.333 -18.667 -75 -44c-18 -26 -27 -58.667 -27 -98c0 -40 9.33301 -73.333 28 -100zM414 4c-30 -9.33301 -69.002 -13.999 -117.002 -13.999c-22 0 -42 2.33301 -60 7l-24 -75h-50l28 90c-76 41.333 -114 112.666 -114 213.999
c0 68 18.667 123.333 56 166c39.333 44 92.666 66 159.999 66c8.66699 0 20.334 -0.666992 35.001 -2l22 72h51l-24 -79c10.667 -1.33301 20.334 -3.33301 29.001 -6l-10 -92c-11.333 6 -26.666 10.667 -45.999 14l-84 -274c16 -7.33301 33.667 -11 53 -11
c33.333 0 63.333 7 90 21z" />
    <glyph glyph-name="sterling" unicode="&#xa3;" 
d="M441 0l-392.001 -0.000976562v90h76v191h-66v69h66v73c0 56.667 20 103.334 60 140.001c39.333 36 89 54 149 54c46.667 0 84.334 -5 113.001 -15l-6 -95c-29.333 9.33301 -57.333 14 -84 14c-36.667 0 -65 -11.667 -85 -35c-16.667 -20 -25 -46 -25 -78v-58h128v-69
h-128v-191h194v-90z" />
    <glyph glyph-name="currency" unicode="&#xa4;" 
d="M470 130l-52.001 -50.998l-50 50c-38.667 -26 -80 -39 -124 -39s-85.667 13 -125 39l-50 -50l-51 51l50 51c-26.667 38.667 -40 80 -40 124c0 45.333 13.333 86.666 40 123.999l-50 51l51 51l50 -50c38.667 26.667 80.334 40 125.001 40c44 0 85.333 -13.333 124 -40
l50 50l52 -51l-51 -51c26.667 -36.667 40 -77.667 40 -123c0 -44.667 -13.333 -86.334 -40 -125.001zM158.999 217.002c22.667 -24 51.002 -36.333 85.002 -37c34 0.666992 62.333 13 85 37c22 23.333 33.667 52.666 35 87.999c-0.666992 36 -12.334 65.667 -35.001 89
c-22.667 22.667 -51 34.667 -85 36c-34 -1.33301 -62.333 -13.333 -85 -36c-22.667 -23.333 -34.334 -53 -35.001 -89c1.33301 -35.333 13 -64.666 35 -87.999z" />
    <glyph glyph-name="yen" unicode="&#xa5;" 
d="M430 128h-128v-128h-117v128h-127v69h127v43l-7 11h-120v70h87l-152 286h123l131 -268l134 268h114l-151 -286h86v-70h-122l-6 -11v-43h128v-69z" />
    <glyph glyph-name="brokenbar" unicode="&#xa6;" horiz-adv-x="197" 
d="M144 282h-91v305h91v-305zM144 -152h-91v304h91v-304z" />
    <glyph glyph-name="section" unicode="&#xa7;" 
d="M265 187c17.333 -6.66699 31.333 -13.668 42 -21.001c20.667 17.333 31 39 31 65c0 30.667 -30.667 56.667 -92 78l-65 24c-20.667 -13.333 -31 -34.666 -31 -63.999c0 -25.333 20.667 -46 62 -62zM78 5.99902c53.333 -22.667 102.002 -33.9971 146.002 -33.9971
c58.667 0 88 20 88 60c0 15.333 -13.333 30.666 -40 45.999c-5.33301 3.33301 -34 17 -86 41c-84.667 39.333 -127 82.333 -127 129c0 52 22.333 91 67 117c-40.667 26.667 -61 61 -61 103c0 47.333 20.333 84.666 61 111.999c36 24.667 79 37 129 37
c45.333 0 91.666 -5.66699 138.999 -17l-10 -95c-38 14.667 -79.333 22 -124 22c-55.333 0 -83 -19.667 -83 -59c0 -22 13 -38.667 39 -50c10.667 -4.66699 33.667 -13.334 69 -26.001c30 -10.667 53 -20.334 69 -29.001c50 -26.667 75 -64.667 75 -114
c0 -48.667 -21.667 -85.667 -65 -111c39.333 -23.333 59 -56.333 59 -99c0 -49.333 -20.333 -88.666 -61 -117.999c-36.667 -26 -80.334 -39 -131.001 -39c-48.667 0 -102 8.33301 -160 25z" />
    <glyph glyph-name="dieresis" unicode="&#xa8;" horiz-adv-x="246" 
d="M263 529h-101v101h101v-101zM84 529h-101v101h101v-101z" />
    <glyph glyph-name="copyright" unicode="&#xa9;" horiz-adv-x="699" 
d="M507 126c43.333 45.333 65.334 104.334 66.001 177.001c-0.666992 73.333 -22.334 132.666 -65.001 177.999c-41.333 44 -94 66 -158 66c-65.333 0 -119 -22.667 -161 -68s-63 -104 -63 -176c0 -71.333 21.667 -130 65 -176c42 -45.333 95 -68 159 -68
c62.667 0 115 22.333 157 67zM514.001 253.001c-6.66699 -42 -24.6689 -75 -54.002 -99c-27.333 -22 -60 -33 -98 -33c-53.333 0 -96.666 18 -129.999 54c-32 34.667 -48 78.334 -48 131.001c0 54.667 15.667 99 47 133c32 34.667 75 52 129 52
c86.667 0 137 -43.333 151 -130h-69c-7.33301 40 -34.666 60 -81.999 60c-28.667 0 -51 -10.667 -67 -32c-15.333 -20.667 -23 -48 -23 -82c0 -32.667 8.66699 -60.334 26 -83.001s39.333 -34 66 -34c49.333 0 76 21 80 63h72zM571.999 82.001
c-60.667 -60 -134.666 -90.665 -221.999 -91.998c-86.667 1.33301 -160.667 32 -222 92c-61.333 61.333 -92 135 -92 221c0 87.333 30.333 161.666 91 222.999c61.333 60.667 135.666 91 222.999 91c88 0 162.333 -30.333 223 -91c60 -60.667 90 -135 90 -223
c0 -86.667 -30.333 -160.334 -91 -221.001z" />
    <glyph glyph-name="ordfeminine" unicode="&#xaa;" horiz-adv-x="318" 
d="M216 341l-0.00292969 36h-2c-13.333 -28.667 -40.666 -43 -81.999 -43c-27.333 0 -50.666 5.66699 -69.999 17c-24 14 -36 33.667 -36 59c0 64.667 51.333 97 154 97h32c0 22.667 -5.33301 38.334 -16 47.001c-9.33301 7.33301 -25 11 -47 11
c-31.333 0 -61.666 -9 -90.999 -27v57c30 14.667 64.667 22 104 22c83.333 0 125 -38.333 125 -115c0 -62.667 1.33301 -116.334 4 -161.001h-75zM159.997 461c-39.333 -4.66699 -59 -20 -59 -46c0 -19.333 15 -29 45 -29c44.667 0 67 25 67 75h-53z" />
    <glyph glyph-name="guillemotleft" unicode="&#xab;" 
d="M450 56h-109l-103 178l103 178h109l-95 -178zM257 56h-110l-102 178l102 178h110l-96 -178z" />
    <glyph glyph-name="logicalnot" unicode="&#xac;" horiz-adv-x="525" 
d="M483 94h-90v175h-351v91h441v-266z" />
    <glyph glyph-name="uni00AD" unicode="&#xad;" horiz-adv-x="293" 
d="M261 186h-229v96h229v-96z" />
    <glyph glyph-name="registered" unicode="&#xae;" horiz-adv-x="699" 
d="M572 82c-60.667 -60 -134.666 -90.665 -221.999 -91.998c-86.667 1.33301 -160.667 32 -222 92c-61.333 61.333 -92 135 -92 221c0 87.333 30.333 161.666 91 222.999c61.333 60.667 135.666 91 222.999 91c88 0 162.333 -30.333 223 -91c60 -60.667 90 -135 90 -223
c0 -86.667 -30.333 -160.334 -91 -221.001zM507.001 126.002c43.333 45.333 65.334 104.334 66.001 177.001c-0.666992 73.333 -22.334 132.666 -65.001 177.999c-41.333 44 -94 66 -158 66c-65.333 0 -119 -22.667 -161 -68s-63 -104 -63 -176
c0 -71.333 21.667 -130 65 -176c42 -45.333 95 -68 159 -68c62.667 0 115 22.333 157 67zM494.002 130.003h-77l-83 148h-36v-148h-74v349h131c92.667 0 139 -34.667 139 -104c0 -57.333 -30.667 -88.333 -92 -93zM359.002 335.003c40 0 60 15.333 60 46
c0 26.667 -22.667 40 -68 40h-53v-86h61z" />
    <glyph glyph-name="macron" unicode="&#xaf;" horiz-adv-x="246" 
d="M248 537h-250v70h250v-70z" />
    <glyph glyph-name="degree" unicode="&#xb0;" horiz-adv-x="352" 
d="M176 401c48.667 0 73.999 25.333 75.999 76c-2 49.333 -27.333 75 -76 77c-51.333 -2 -77 -27.667 -77 -77c0 -22.667 7 -41 21 -55c14.667 -14 33.334 -21 56.001 -21zM174.999 338c-38.667 0 -71.334 13.667 -98.001 41c-27.333 26.667 -41 59.334 -41 98.001
s13.667 71.667 41 99c26.667 27.333 59.334 41 98.001 41s71.667 -13.667 99 -41s41 -60.333 41 -99s-13.667 -71.334 -41 -98.001c-27.333 -27.333 -60.333 -41 -99 -41z" />
    <glyph glyph-name="plusminus" unicode="&#xb1;" horiz-adv-x="525" 
d="M483 235h-175v-116h-90v116h-176v90h176v115h90v-115h175v-90zM483 0h-441v90h441v-90z" />
    <glyph glyph-name="twosuperior" unicode="&#xb2;" horiz-adv-x="318" 
d="M291 245h-263.001v71c28.667 12.667 62 40 100 82c40 44 60 77 60 99c0 30 -17.667 45 -53 45c-33.333 0 -63.666 -9.66699 -90.999 -29l-6 75c36.667 19.333 75.667 29 117 29c89.333 0 134 -37.333 134 -112c0 -35.333 -19 -73.333 -57 -114
c-31.333 -32.667 -61.333 -55.667 -90 -69v-2h149v-75z" />
    <glyph glyph-name="threesuperior" unicode="&#xb3;" horiz-adv-x="318" 
d="M216 435c51.333 -6 77.002 -34.001 77.002 -84.001c0 -38 -18 -67 -54 -87c-28.667 -16 -63.667 -24 -105 -24c-33.333 0 -69.666 5 -108.999 15l4 72c33.333 -12 64.666 -18 93.999 -18c44 0 67 15 69 45c-1.33301 28 -22.333 42 -63 42c-16.667 0 -33 -0.666992 -49 -2
v73c8.66699 -0.666992 25.667 -1 51 -1c38.667 0 59 13.667 61 41c-1.33301 26.667 -19.666 40 -54.999 40c-38.667 0 -70.334 -7.33301 -95.001 -22l-4 71c39.333 14 76.666 21 111.999 21s65.666 -6.33301 90.999 -19c31.333 -16 47 -39.667 47 -71
c0 -47.333 -24 -77.666 -72 -90.999v-1z" />
    <glyph glyph-name="acute" unicode="&#xb4;" horiz-adv-x="246" 
d="M99 508h-72l72 127h119z" />
    <glyph glyph-name="mu" unicode="&#xb5;" horiz-adv-x="535" 
d="M473 0h-110v61h-2c-20 -47.333 -52.333 -71 -97 -71c-37.333 0 -65.333 9.66699 -84 29h-2v-201h-116v630h116v-239c0 -86 25.333 -129 76 -129c38 0 66 18 84 54c12.667 25.333 19 57 19 95v219h116v-448z" />
    <glyph glyph-name="paragraph" unicode="&#xb6;" horiz-adv-x="543" 
d="M467 -108h-90v645h-93v-645h-90v404c-126.667 3.33301 -190 54 -190 152c0 106 69.333 159 208 159h255v-715z" />
    <glyph glyph-name="periodcentered" unicode="&#xb7;" horiz-adv-x="246" 
d="M56 247c0 42.667 22.334 64.999 67.001 66.999c44.667 -2 67 -24.333 67 -67c0 -19.333 -6.33301 -35.333 -19 -48s-28.667 -19 -48 -19c-20.667 0 -37.334 6.66699 -50.001 20c-11.333 12.667 -17 28.334 -17 47.001z" />
    <glyph glyph-name="cedilla" unicode="&#xb8;" horiz-adv-x="246" 
d="M112 -136c12 -3.33301 23.001 -5 33.001 -5c30.667 0 46 10.333 46 31s-11.333 31 -34 31c-14.667 0 -28 -2.66699 -40 -8l-13 23l51 64h55l-40 -46l1 -2c12 3.33301 24 5 36 5c44.667 0 68 -20 70 -60c-0.666992 -30 -12.334 -53 -35.001 -69
c-20 -14 -44.667 -21 -74 -21c-40 0 -73.667 6 -101 18l18 47z" />
    <glyph glyph-name="onesuperior" unicode="&#xb9;" horiz-adv-x="318" 
d="M215 245h-90v278l-67 -51l-46 53l121 87h82v-367z" />
    <glyph glyph-name="ordmasculine" unicode="&#xba;" horiz-adv-x="349" 
d="M284 580c29.333 -26 44.333 -60.668 45 -104.001c-0.666992 -43.333 -15.667 -78 -45 -104c-28.667 -25.333 -65 -38 -109 -38c-44.667 0 -81.334 12.667 -110.001 38c-30 26 -45 60.667 -45 104c0 42.667 15.333 77.334 46 104.001c28.667 24.667 65.334 37 110.001 37
c43.333 0 79.333 -12.333 108 -37zM244 475.999c0 57.333 -22 87 -66 89c-48.667 -2 -73 -31.667 -73 -89c0 -60 23.667 -90 71 -90c45.333 0 68 30 68 90z" />
    <glyph glyph-name="guillemotright" unicode="&#xbb;" 
d="M146 56h-109l95 178l-95 178h109l103 -178zM340 56h-109l95 178l-95 178h109l103 -178z" />
    <glyph glyph-name="onequarter" unicode="&#xbc;" horiz-adv-x="729" 
d="M216 -19h-71l362 645h71zM222 245h-91v278l-66 -51l-46 53l121 87h82v-367zM572 138v149h-2l-99 -149h101zM662 0h-90v69h-175v74l157 224h108v-229h42v-69h-42v-69z" />
    <glyph glyph-name="onehalf" unicode="&#xbd;" horiz-adv-x="729" 
d="M190 -19h-72l363 645h71zM213 245h-90v278l-67 -52l-45 53l120 88h82v-367zM698 0h-262v71c26 11.333 58.667 38 98 80c41.333 44.667 62 78.334 62 101.001c0 30 -17.667 45 -53 45c-34 0 -64.667 -9.66699 -92 -29l-6 75c37.333 19.333 76.666 29 117.999 29
c88.667 0 133 -37.333 133 -112c0 -34.667 -18.667 -72.334 -56 -113.001c-31.333 -34 -61.666 -58 -90.999 -72h149v-75z" />
    <glyph glyph-name="threequarters" unicode="&#xbe;" horiz-adv-x="729" 
d="M226 -19h-71l362 645h72zM205 435c52 -6 77.999 -34.001 77.999 -84.001c0 -38.667 -18.333 -67.667 -55 -87c-29.333 -16 -64 -24 -104 -24c-34 0 -70.667 5 -110 15l5 72c32 -12 65 -18 99 -18c16.667 0 31.667 3.66699 45 11c15.333 8.66699 23.333 20 24 34
c-2 28 -25 42 -69 42c-16 0 -32 -0.666992 -48 -2v73c8.66699 -0.666992 25.334 -1 50.001 -1c42.667 0 65 13.667 67 41c-1.33301 26.667 -21.666 40 -60.999 40c-38 0 -69.333 -7.33301 -94 -22l-5 71c39.333 14 76.666 21 111.999 21c34.667 0 64.667 -6 90 -18
c32 -16 48 -40 48 -72c0 -47.333 -24 -77.666 -72 -90.999v-1zM581.999 137.999v149l-99 -149h99zM672.999 -0.000976562h-91v69h-174v74l156 224h109v-229h42v-69h-42v-69z" />
    <glyph glyph-name="questiondown" unicode="&#xbf;" horiz-adv-x="439" 
d="M393 -141c-43.333 -18.667 -100.666 -28 -171.999 -28c-53.333 0 -98 12 -134 36c-42.667 28 -64 67.667 -64 119c0 29.333 8.33301 56 25 80c11.333 16 25.666 34.333 42.999 55l40 46c26.667 34.667 40 69 40 103h106c0 -56.667 -21 -109 -63 -157
c-42.667 -47.333 -64 -85 -64 -113c0 -27.333 11.667 -48 35 -62c18 -11.333 39.667 -17 65 -17c48 0 92.333 11.667 133 35zM284 326h-122v122h122v-122z" />
    <glyph glyph-name="Agrave" unicode="&#xc0;" horiz-adv-x="631" 
d="M401 235l-88 250h-2l-87 -250h177zM622 0h-135l-52 139h-246l-53 -139h-126l236 607h137zM411 645h-72l-119 127h119z" />
    <glyph glyph-name="Aacute" unicode="&#xc1;" horiz-adv-x="631" 
d="M401 235l-88 250h-2l-87 -250h177zM622 0h-135l-52 139h-246l-53 -139h-126l236 607h137zM292 645h-72l72 127h119z" />
    <glyph glyph-name="Acircumflex" unicode="&#xc2;" horiz-adv-x="631" 
d="M401 235l-88 250h-2l-87 -250h177zM622 0h-135l-52 139h-246l-53 -139h-126l236 607h137zM453 645h-77l-59 75l-61 -75h-78l96 127h88z" />
    <glyph glyph-name="Atilde" unicode="&#xc3;" horiz-adv-x="631" 
d="M401 235l-88 250h-2l-87 -250h177zM622 0h-135l-52 139h-246l-53 -139h-126l236 607h137zM469 771c0 -30.667 -6.99805 -55.667 -20.998 -75c-15.333 -20 -36.666 -30 -63.999 -30c-22.667 0 -46.167 5.33301 -70.5 16s-45.5 16 -63.5 16
c-27.333 0 -41.333 -12.667 -42 -38h-47c1.33301 27.333 9.66602 51.333 24.999 72c17.333 22 38.666 33 63.999 33c17.333 0 40.666 -6 69.999 -18s50.333 -18 63 -18c26 0 39 14 39 42h47z" />
    <glyph glyph-name="Adieresis" unicode="&#xc4;" horiz-adv-x="631" 
d="M401 235l-88 250h-2l-87 -250h177zM622 0h-135l-52 139h-246l-53 -139h-126l236 607h137zM455 666h-101v101h101v-101zM276 666h-101v101h101v-101z" />
    <glyph glyph-name="Aring" unicode="&#xc5;" horiz-adv-x="631" 
d="M401 235l-88 250h-2l-87 -250h177zM622 0h-135l-52 139h-246l-53 -139h-126l236 607h137zM315 821c25.333 0 47.333 -9 66 -27c18 -18.667 27 -40.667 27 -66s-9 -47 -27 -65c-18.667 -18 -40.667 -27 -66 -27s-47 9 -65 27s-27 39.667 -27 65s9 47.333 27 66
c18 18 39.667 27 65 27zM347 696c9.33301 8.66699 14 19.334 14 32.001s-4.66699 23.334 -14 32.001c-8.66699 9.33301 -19.334 14 -32.001 14s-23.334 -4.66699 -32.001 -14c-8.66699 -8.66699 -13 -19.334 -13 -32.001s4.33301 -23.334 13 -32.001s19.334 -13 32.001 -13
s23.334 4.33301 32.001 13z" />
    <glyph glyph-name="AE" unicode="&#xc6;" horiz-adv-x="825" 
d="M439 235l-20 281h-2l-150 -281h172zM779 0h-321l-10 139h-233l-75 -139h-130l332 607h433v-96h-235l12 -149h204v-96h-193l13 -170h203v-96z" />
    <glyph glyph-name="Ccedilla" unicode="&#xc7;" horiz-adv-x="535" 
d="M514 9c-44 -12.667 -89.9971 -19 -137.997 -19h-12l-32 -36l2 -2c12 3.33301 24 5 36 5c44 0 67 -20 69 -60c-0.666992 -30 -12.334 -53 -35.001 -69c-20 -14 -44.667 -21 -74 -21c-41.333 0 -74.666 6 -99.999 18l17 47c25.333 -7.33301 45.666 -11.666 60.999 -12.999
c30.667 0 46 10.333 46 31s-11.333 31 -34 31c-14.667 0 -28.334 -2.66699 -41.001 -8l-13 23l47 59c-180 17.333 -270 116.666 -270 297.999c0 216 111 324 333 324c44 0 89.667 -8.33301 137 -25l-9 -103c-37.333 21.333 -81 32 -131 32
c-62.667 0 -112.334 -21 -149.001 -63c-36 -40.667 -54 -92.667 -54 -156c0 -64 18.333 -115.667 55 -155c38 -41.333 88.333 -62 151 -62c54 0 98.333 8.33301 133 25z" />
    <glyph glyph-name="Egrave" unicode="&#xc8;" 
d="M432 0h-360v607h358v-96h-236v-149h216v-96h-216v-170h238v-96zM339 645h-72l-119 127h119z" />
    <glyph glyph-name="Eacute" unicode="&#xc9;" 
d="M432 0h-360v607h358v-96h-236v-149h216v-96h-216v-170h238v-96zM220 645h-72l72 127h119z" />
    <glyph glyph-name="Ecircumflex" unicode="&#xca;" 
d="M432 0h-360v607h358v-96h-236v-149h216v-96h-216v-170h238v-96zM381 645h-77l-59 75l-61 -75h-78l96 127h88z" />
    <glyph glyph-name="Edieresis" unicode="&#xcb;" 
d="M432 0h-360v607h358v-96h-236v-149h216v-96h-216v-170h238v-96zM383 666h-101v101h101v-101zM204 666h-101v101h101v-101z" />
    <glyph glyph-name="Igrave" unicode="&#xcc;" horiz-adv-x="246" 
d="M184 0h-122v607h122v-607zM218 645h-72l-119 127h119z" />
    <glyph glyph-name="Iacute" unicode="&#xcd;" horiz-adv-x="246" 
d="M184 0h-122v607h122v-607zM99 645h-72l72 127h119z" />
    <glyph glyph-name="Icircumflex" unicode="&#xce;" horiz-adv-x="246" 
d="M184 0h-122v607h122v-607zM260 645h-77l-59 75l-61 -75h-78l96 127h88z" />
    <glyph glyph-name="Idieresis" unicode="&#xcf;" horiz-adv-x="246" 
d="M184 0h-122v607h122v-607zM263 666h-101v101h101v-101zM84 666h-101v101h101v-101z" />
    <glyph glyph-name="Eth" unicode="&#xd0;" horiz-adv-x="631" 
d="M72 0v292h-55v75h55v240h166c234 0 351 -101.333 351 -304c0 -202 -117 -303 -351 -303h-166zM262 96c55.333 0 101.666 18 138.999 54c40.667 38.667 61 89.667 61 153c0 64 -20.333 115.333 -61 154c-37.333 36 -83.666 54 -138.999 54h-68v-144h127v-75h-127v-196h68z
" />
    <glyph glyph-name="Ntilde" unicode="&#xd1;" horiz-adv-x="631" 
d="M565 0h-148l-233 454h-1v-454h-117v607h150l231 -454h2v454h116v-607zM469 771c0 -30.667 -6.99805 -55.667 -20.998 -75c-15.333 -20 -36.666 -30 -63.999 -30c-22.667 0 -46.167 5.33301 -70.5 16s-45.5 16 -63.5 16c-27.333 0 -41.333 -12.667 -42 -38h-47
c1.33301 27.333 9.66602 51.333 24.999 72c17.333 22 38.666 33 63.999 33c17.333 0 40.666 -6 69.999 -18s50.333 -18 63 -18c26 0 39 14 39 42h47z" />
    <glyph glyph-name="Ograve" unicode="&#xd2;" horiz-adv-x="680" 
d="M560 77c-52.667 -57.333 -126.002 -86.334 -220.002 -87.001c-95.333 0.666992 -169 30 -221 88c-50.667 55.333 -76 131 -76 227s25.333 171.667 76 227c52.667 56.667 126.334 85 221.001 85s168.334 -28.667 221.001 -86c50.667 -55.333 76 -130.666 76 -225.999
c0 -96 -25.667 -172 -77 -228zM470.998 453.999c-30 44 -73.668 66.3311 -131.001 66.998c-56 -0.666992 -99.333 -23.334 -130 -68.001c-26.667 -39.333 -40 -88.666 -40 -147.999c0 -61.333 13 -111.666 39 -150.999c30.667 -46 74.334 -69 131.001 -69
c57.333 0 101 22.667 131 68c26 39.333 39 90 39 152c0 60.667 -13 110.334 -39 149.001zM434.997 644.997h-72l-119 127h119z" />
    <glyph glyph-name="Oacute" unicode="&#xd3;" horiz-adv-x="680" 
d="M560 77c-52.667 -57.333 -126.002 -86.334 -220.002 -87.001c-95.333 0.666992 -169 30 -221 88c-50.667 55.333 -76 131 -76 227s25.333 171.667 76 227c52.667 56.667 126.334 85 221.001 85s168.334 -28.667 221.001 -86c50.667 -55.333 76 -130.666 76 -225.999
c0 -96 -25.667 -172 -77 -228zM470.998 453.999c-30 44 -73.668 66.3311 -131.001 66.998c-56 -0.666992 -99.333 -23.334 -130 -68.001c-26.667 -39.333 -40 -88.666 -40 -147.999c0 -61.333 13 -111.666 39 -150.999c30.667 -46 74.334 -69 131.001 -69
c57.333 0 101 22.667 131 68c26 39.333 39 90 39 152c0 60.667 -13 110.334 -39 149.001zM315.997 644.997h-72l72 127h119z" />
    <glyph glyph-name="Ocircumflex" unicode="&#xd4;" horiz-adv-x="680" 
d="M560 77c-52.667 -57.333 -126.002 -86.334 -220.002 -87.001c-95.333 0.666992 -169 30 -221 88c-50.667 55.333 -76 131 -76 227s25.333 171.667 76 227c52.667 56.667 126.334 85 221.001 85s168.334 -28.667 221.001 -86c50.667 -55.333 76 -130.666 76 -225.999
c0 -96 -25.667 -172 -77 -228zM470.998 453.999c-30 44 -73.668 66.3311 -131.001 66.998c-56 -0.666992 -99.333 -23.334 -130 -68.001c-26.667 -39.333 -40 -88.666 -40 -147.999c0 -61.333 13 -111.666 39 -150.999c30.667 -46 74.334 -69 131.001 -69
c57.333 0 101 22.667 131 68c26 39.333 39 90 39 152c0 60.667 -13 110.334 -39 149.001zM476.997 644.997h-77l-59 75l-61 -75h-78l96 127h88z" />
    <glyph glyph-name="Otilde" unicode="&#xd5;" horiz-adv-x="680" 
d="M560 77c-52.667 -57.333 -126.002 -86.334 -220.002 -87.001c-95.333 0.666992 -169 30 -221 88c-50.667 55.333 -76 131 -76 227s25.333 171.667 76 227c52.667 56.667 126.334 85 221.001 85s168.334 -28.667 221.001 -86c50.667 -55.333 76 -130.666 76 -225.999
c0 -96 -25.667 -172 -77 -228zM470.998 453.999c-30 44 -73.668 66.3311 -131.001 66.998c-56 -0.666992 -99.333 -23.334 -130 -68.001c-26.667 -39.333 -40 -88.666 -40 -147.999c0 -61.333 13 -111.666 39 -150.999c30.667 -46 74.334 -69 131.001 -69
c57.333 0 101 22.667 131 68c26 39.333 39 90 39 152c0 60.667 -13 110.334 -39 149.001zM493.997 770.997c0 -30.667 -6.99805 -55.667 -20.998 -75c-15.333 -20 -36.666 -30 -63.999 -30c-22.667 0 -46.167 5.33301 -70.5 16s-45.5 16 -63.5 16
c-27.333 0 -41.333 -12.667 -42 -38h-47c1.33301 27.333 9.66602 51.333 24.999 72c17.333 22 38.666 33 63.999 33c17.333 0 40.666 -6 69.999 -18s50.333 -18 63 -18c26 0 39 14 39 42h47z" />
    <glyph glyph-name="Odieresis" unicode="&#xd6;" horiz-adv-x="680" 
d="M560 77c-52.667 -57.333 -126.002 -86.334 -220.002 -87.001c-95.333 0.666992 -169 30 -221 88c-50.667 55.333 -76 131 -76 227s25.333 171.667 76 227c52.667 56.667 126.334 85 221.001 85s168.334 -28.667 221.001 -86c50.667 -55.333 76 -130.666 76 -225.999
c0 -96 -25.667 -172 -77 -228zM470.998 453.999c-30 44 -73.668 66.3311 -131.001 66.998c-56 -0.666992 -99.333 -23.334 -130 -68.001c-26.667 -39.333 -40 -88.666 -40 -147.999c0 -61.333 13 -111.666 39 -150.999c30.667 -46 74.334 -69 131.001 -69
c57.333 0 101 22.667 131 68c26 39.333 39 90 39 152c0 60.667 -13 110.334 -39 149.001zM479.997 665.997h-101v101h101v-101zM300.997 665.997h-101v101h101v-101z" />
    <glyph glyph-name="multiply" unicode="&#xd7;" horiz-adv-x="525" 
d="M466 79l-63 -62l-140 141l-141 -141l-63 62l141 141l-141 141l63 62l141 -141l140 141l63 -62l-142 -141z" />
    <glyph glyph-name="Oslash" unicode="&#xd8;" horiz-adv-x="680" 
d="M444 483c-26.667 25.333 -61.334 37.999 -104.001 37.999c-55.333 0 -98.666 -22.667 -129.999 -68c-26.667 -39.333 -40 -88.666 -40 -147.999c0 -50.667 10 -96 30 -136zM231 126.999c29.333 -28 65.667 -42 109 -42c57.333 0 101 22.667 131 68
c26 39.333 39 90 39 152c0 52 -11.333 97.667 -34 137zM113.001 -25.001l-38.999 31l51 66c-54.667 55.333 -82 133 -82 233c0 96 25.333 171.667 76 227c52.667 56.667 126.334 85 221.001 85c67.333 0 124.666 -15.333 171.999 -46l47 61l39 -32l-47 -61
c57.333 -57.333 86 -135.333 86 -234c0 -96 -25.333 -172 -76 -228c-52.667 -58 -126.334 -87 -221.001 -87c-72.667 0 -131.667 16.333 -177 49z" />
    <glyph glyph-name="Ugrave" unicode="&#xd9;" horiz-adv-x="631" 
d="M563 219c0 -152.667 -79.333 -229 -238 -229c-171.333 0 -257 76.333 -257 229v388h122v-351c0 -114 42 -171 126 -171s126 57 126 171v351h121v-388zM411 645h-72l-119 127h119z" />
    <glyph glyph-name="Uacute" unicode="&#xda;" horiz-adv-x="631" 
d="M563 219c0 -152.667 -79.333 -229 -238 -229c-171.333 0 -257 76.333 -257 229v388h122v-351c0 -114 42 -171 126 -171s126 57 126 171v351h121v-388zM292 645h-72l72 127h119z" />
    <glyph glyph-name="Ucircumflex" unicode="&#xdb;" horiz-adv-x="631" 
d="M563 219c0 -152.667 -79.333 -229 -238 -229c-171.333 0 -257 76.333 -257 229v388h122v-351c0 -114 42 -171 126 -171s126 57 126 171v351h121v-388zM453 645h-77l-59 75l-61 -75h-78l96 127h88z" />
    <glyph glyph-name="Udieresis" unicode="&#xdc;" horiz-adv-x="631" 
d="M563 219c0 -152.667 -79.333 -229 -238 -229c-171.333 0 -257 76.333 -257 229v388h122v-351c0 -114 42 -171 126 -171s126 57 126 171v351h121v-388zM455 666h-101v101h101v-101zM276 666h-101v101h101v-101z" />
    <glyph glyph-name="Yacute" unicode="&#xdd;" horiz-adv-x="584" 
d="M355 0h-122v240l-221 367h142l143 -255l146 255h129l-217 -367v-240zM268 645h-72l72 127h119z" />
    <glyph glyph-name="Thorn" unicode="&#xde;" 
d="M184 0h-122v607h122v-101h32c168.667 0 253 -61.333 253 -184c0 -128.667 -78 -193 -234 -193h-51v-129zM226 225c77.333 0 116 30 116 90c0 63.333 -38.667 95 -116 95h-42v-185h42z" />
    <glyph glyph-name="germandbls" unicode="&#xdf;" horiz-adv-x="535" 
d="M181 0l-115.999 -0.000976562v439c0 68 17.667 121.667 53 161c37.333 41.333 90.666 62 159.999 62c53.333 0 98.666 -13.333 135.999 -40c41.333 -30 62 -70 62 -120c0 -80.667 -38.667 -132 -116 -154v-1c44.667 -6 80.334 -24 107.001 -54
c26.667 -29.333 40 -64.666 40 -105.999c0 -59.333 -19 -106.333 -57 -141c-36 -34 -84 -51 -144 -51c-28.667 0 -54.667 3 -78 9l3 91c14 -6.66699 34.333 -10 61 -10c62 0 93 38 93 114c0 65.333 -45.333 98 -136 98v91c70 0 105 31.333 105 94c0 58 -25.667 88 -77 90
c-32 -0.666992 -56.667 -14 -74 -40c-14.667 -22.667 -22 -50.667 -22 -84v-448z" />
    <glyph glyph-name="agrave" unicode="&#xe0;" 
d="M335 0c-3.33301 30 -5 52.333 -5 67h-2c-29.333 -51.333 -75.333 -77 -138 -77c-42.667 0 -79 11.667 -109 35c-32 24.667 -48 57.334 -48 98.001c0 102 75.667 153 227 153h64c0 35.333 -7.66699 60.666 -23 75.999c-15.333 14 -41 21 -77 21
c-50.667 0 -97 -16.333 -139 -49l-3 100c54 22.667 105.667 34 155 34c128.667 0 193 -63 193 -189v-57c0 -63.333 2.33301 -134 7 -212h-102zM254 207c-72.667 0 -109 -26 -109 -78c0 -36 24.333 -54 73 -54c35.333 0 62.333 13 81 39c16.667 24 25 55 25 93h-70zM339 508
h-72l-119 127h119z" />
    <glyph glyph-name="aacute" unicode="&#xe1;" 
d="M335 0c-3.33301 30 -5 52.333 -5 67h-2c-29.333 -51.333 -75.333 -77 -138 -77c-42.667 0 -79 11.667 -109 35c-32 24.667 -48 57.334 -48 98.001c0 102 75.667 153 227 153h64c0 35.333 -7.66699 60.666 -23 75.999c-15.333 14 -41 21 -77 21
c-50.667 0 -97 -16.333 -139 -49l-3 100c54 22.667 105.667 34 155 34c128.667 0 193 -63 193 -189v-57c0 -63.333 2.33301 -134 7 -212h-102zM254 207c-72.667 0 -109 -26 -109 -78c0 -36 24.333 -54 73 -54c35.333 0 62.333 13 81 39c16.667 24 25 55 25 93h-70zM220 508
h-72l72 127h119z" />
    <glyph glyph-name="acircumflex" unicode="&#xe2;" 
d="M335 0c-3.33301 30 -5 52.333 -5 67h-2c-29.333 -51.333 -75.333 -77 -138 -77c-42.667 0 -79 11.667 -109 35c-32 24.667 -48 57.334 -48 98.001c0 102 75.667 153 227 153h64c0 35.333 -7.66699 60.666 -23 75.999c-15.333 14 -41 21 -77 21
c-50.667 0 -97 -16.333 -139 -49l-3 100c54 22.667 105.667 34 155 34c128.667 0 193 -63 193 -189v-57c0 -63.333 2.33301 -134 7 -212h-102zM254 207c-72.667 0 -109 -26 -109 -78c0 -36 24.333 -54 73 -54c35.333 0 62.333 13 81 39c16.667 24 25 55 25 93h-70zM381 508
h-77l-59 75l-61 -75h-78l96 127h88z" />
    <glyph glyph-name="atilde" unicode="&#xe3;" 
d="M335 0c-3.33301 30 -5 52.333 -5 67h-2c-29.333 -51.333 -75.333 -77 -138 -77c-42.667 0 -79 11.667 -109 35c-32 24.667 -48 57.334 -48 98.001c0 102 75.667 153 227 153h64c0 35.333 -7.66699 60.666 -23 75.999c-15.333 14 -41 21 -77 21
c-50.667 0 -97 -16.333 -139 -49l-3 100c54 22.667 105.667 34 155 34c128.667 0 193 -63 193 -189v-57c0 -63.333 2.33301 -134 7 -212h-102zM254 207c-72.667 0 -109 -26 -109 -78c0 -36 24.333 -54 73 -54c35.333 0 62.333 13 81 39c16.667 24 25 55 25 93h-70zM397 635
c0 -30.667 -6.99805 -55.667 -20.998 -75c-15.333 -20 -36.666 -30 -63.999 -30c-22.667 0 -46.167 5.33301 -70.5 16s-45.5 16 -63.5 16c-27.333 0 -41.333 -12.667 -42 -38h-47c1.33301 27.333 9.66602 51.333 24.999 72c17.333 22 38.666 33 63.999 33
c17.333 0 40.666 -6 69.999 -18s50.333 -18 63 -18c26 0 39 14 39 42h47z" />
    <glyph glyph-name="adieresis" unicode="&#xe4;" 
d="M335 0c-3.33301 30 -5 52.333 -5 67h-2c-29.333 -51.333 -75.333 -77 -138 -77c-42.667 0 -79 11.667 -109 35c-32 24.667 -48 57.334 -48 98.001c0 102 75.667 153 227 153h64c0 35.333 -7.66699 60.666 -23 75.999c-15.333 14 -41 21 -77 21
c-50.667 0 -97 -16.333 -139 -49l-3 100c54 22.667 105.667 34 155 34c128.667 0 193 -63 193 -189v-57c0 -63.333 2.33301 -134 7 -212h-102zM254 207c-72.667 0 -109 -26 -109 -78c0 -36 24.333 -54 73 -54c35.333 0 62.333 13 81 39c16.667 24 25 55 25 93h-70zM383 529
h-101v101h101v-101zM204 529h-101v101h101v-101z" />
    <glyph glyph-name="aring" unicode="&#xe5;" 
d="M335 0c-3.33301 30 -5 52.333 -5 67h-2c-29.333 -51.333 -75.333 -77 -138 -77c-42.667 0 -79 11.667 -109 35c-32 24.667 -48 57.334 -48 98.001c0 102 75.667 153 227 153h64c0 35.333 -7.66699 60.666 -23 75.999c-15.333 14 -41 21 -77 21
c-50.667 0 -97 -16.333 -139 -49l-3 100c54 22.667 105.667 34 155 34c128.667 0 193 -63 193 -189v-57c0 -63.333 2.33301 -134 7 -212h-102zM254 207c-72.667 0 -109 -26 -109 -78c0 -36 24.333 -54 73 -54c35.333 0 62.333 13 81 39c16.667 24 25 55 25 93h-70zM243 688
c25.333 0 47.333 -9 66 -27c18 -18.667 27 -40.667 27 -66s-9 -47 -27 -65c-18.667 -18 -40.667 -27 -66 -27s-47 9 -65 27s-27 39.667 -27 65s9 47.333 27 66c18 18 39.667 27 65 27zM275 563c9.33301 8.66699 14 19.334 14 32.001s-4.66699 23.334 -14 32.001
c-8.66699 9.33301 -19.334 14 -32.001 14s-23.334 -4.66699 -32.001 -14c-8.66699 -8.66699 -13 -19.334 -13 -32.001s4.33301 -23.334 13 -32.001s19.334 -13 32.001 -13s23.334 4.33301 32.001 13z" />
    <glyph glyph-name="ae" unicode="&#xe6;" horiz-adv-x="777" 
d="M632 268c0 68 -30.333 103.001 -91 105.001c-32.667 -0.666992 -58.667 -11 -78 -31c-18 -18.667 -27 -43.334 -27 -74.001h196zM713 25.001c-41.333 -23.333 -92.665 -35 -153.998 -35c-86.667 0 -149.334 26.667 -188.001 80c-32.667 -53.333 -86.334 -80 -161.001 -80
c-118 0 -177 44.333 -177 133c0 102 74.667 153 224 153h67c0 35.333 -7.66699 60.333 -23 75c-16 15.333 -42.667 23 -80 23c-48.667 0 -94.667 -16.667 -138 -50l-4 100c52.667 22.667 105.667 34 159 34c71.333 0 122 -19 152 -57c34 38 85 57 153 57
c133.333 -0.666992 200 -90.667 200 -270h-307c0.666992 -35.333 13 -63 37 -83c22.667 -20 53 -30 91 -30c50 0 99.667 15 149 45v-95zM274.001 207.001c-86 0 -129 -28.001 -129 -84.001c0 -13.333 6 -24.666 18 -33.999s28 -14 48 -14c75.333 0 113 44 113 132h-50z" />
    <glyph glyph-name="ccedilla" unicode="&#xe7;" horiz-adv-x="390" 
d="M370 4c-24.667 -8 -56.665 -12.667 -95.998 -14l-32 -36l2 -2c11.333 3.33301 23 5 35 5c44.667 0 68 -20 70 -60c-0.666992 -30 -12.334 -53 -35.001 -69c-20 -14 -44.667 -21 -74 -21c-40 0 -73.667 6 -101 18l18 47c19.333 -8.66699 39.666 -13 60.999 -13
c30.667 0 46 10.333 46 31s-11.667 31 -35 31c-14.667 0 -28 -2.66699 -40 -8l-13 23l45 56c-60.667 8 -107.334 33 -140.001 75c-32 40.667 -48 93.667 -48 159c0 67.333 18.667 122.333 56 165c40 44.667 93.667 67 161 67c44.667 0 82.334 -5 113.001 -15l-11 -92
c-24 11.333 -50.333 17 -79 17c-35.333 0 -64 -13.333 -86 -40c-21.333 -26 -32 -60 -32 -102c0 -42.667 10 -77 30 -103c22 -28.667 52.333 -43 91 -43c30 0 59.667 7 89 21z" />
    <glyph glyph-name="egrave" unicode="&#xe8;" 
d="M343 268c-2.66699 68 -34.333 103 -95 105c-64 -2 -98.333 -37 -103 -105h198zM421.001 25c-41.333 -23.333 -92.667 -35 -154 -35c-156 0 -234 77.333 -234 232c0 68.667 17.333 124.334 52 167.001c37.333 46 89.333 69 156 69c78.667 0 135 -25.333 169 -76
c29.333 -42.667 44 -107.334 44 -194.001h-309c2.66699 -35.333 16 -63 40 -83c22.667 -20 51.667 -30 87 -30c50 0 99.667 15 149 45v-95zM339 508h-72l-119 127h119z" />
    <glyph glyph-name="eacute" unicode="&#xe9;" 
d="M343 268c-2.66699 68 -34.333 103 -95 105c-64 -2 -98.333 -37 -103 -105h198zM421.001 25c-41.333 -23.333 -92.667 -35 -154 -35c-156 0 -234 77.333 -234 232c0 68.667 17.333 124.334 52 167.001c37.333 46 89.333 69 156 69c78.667 0 135 -25.333 169 -76
c29.333 -42.667 44 -107.334 44 -194.001h-309c2.66699 -35.333 16 -63 40 -83c22.667 -20 51.667 -30 87 -30c50 0 99.667 15 149 45v-95zM220 508h-72l72 127h119z" />
    <glyph glyph-name="ecircumflex" unicode="&#xea;" 
d="M343 268c-2.66699 68 -34.333 103 -95 105c-64 -2 -98.333 -37 -103 -105h198zM421.001 25c-41.333 -23.333 -92.667 -35 -154 -35c-156 0 -234 77.333 -234 232c0 68.667 17.333 124.334 52 167.001c37.333 46 89.333 69 156 69c78.667 0 135 -25.333 169 -76
c29.333 -42.667 44 -107.334 44 -194.001h-309c2.66699 -35.333 16 -63 40 -83c22.667 -20 51.667 -30 87 -30c50 0 99.667 15 149 45v-95zM381 508h-77l-59 75l-61 -75h-78l96 127h88z" />
    <glyph glyph-name="edieresis" unicode="&#xeb;" 
d="M343 268c-2.66699 68 -34.333 103 -95 105c-64 -2 -98.333 -37 -103 -105h198zM421.001 25c-41.333 -23.333 -92.667 -35 -154 -35c-156 0 -234 77.333 -234 232c0 68.667 17.333 124.334 52 167.001c37.333 46 89.333 69 156 69c78.667 0 135 -25.333 169 -76
c29.333 -42.667 44 -107.334 44 -194.001h-309c2.66699 -35.333 16 -63 40 -83c22.667 -20 51.667 -30 87 -30c50 0 99.667 15 149 45v-95zM383 529h-101v101h101v-101zM204 529h-101v101h101v-101z" />
    <glyph glyph-name="igrave" unicode="&#xec;" horiz-adv-x="242" 
d="M179 0h-116v448h116v-448zM218 508h-72l-119 127h119z" />
    <glyph glyph-name="iacute" unicode="&#xed;" horiz-adv-x="242" 
d="M179 0h-116v448h116v-448zM99 508h-72l72 127h119z" />
    <glyph glyph-name="icircumflex" unicode="&#xee;" horiz-adv-x="242" 
d="M179 0h-116v448h116v-448zM260 508h-77l-59 75l-61 -75h-78l96 127h88z" />
    <glyph glyph-name="idieresis" unicode="&#xef;" horiz-adv-x="242" 
d="M179 0h-116v448h116v-448zM263 529h-101v101h101v-101zM84 529h-101v101h101v-101z" />
    <glyph glyph-name="eth" unicode="&#xf0;" horiz-adv-x="535" 
d="M268 80c72.667 0 109 45.999 109 137.999c0 36 -8 66.667 -24 92c-20 31.333 -48 47 -84 47s-64.667 -15.333 -86 -46c-18.667 -26.667 -28 -57.667 -28 -93s8.66699 -65.666 26 -90.999c20.667 -31.333 49.667 -47 87 -47zM344 419.999
c-22 42 -52.6641 77.667 -91.9971 107l-80 -52l-44 41l72 47c-30.667 18.667 -59.334 32.667 -86.001 42l53 59c37.333 -13.333 74 -30.333 110 -51l80 51l45 -41l-72 -46c112.667 -82.667 169 -194.334 169 -335.001c0 -78 -18.667 -138.667 -56 -182
c-39.333 -46.667 -98 -70 -176 -70c-72.667 0 -130.334 22.333 -173.001 67c-40.667 42.667 -61 97.334 -61 164.001c0 64 17.333 117 52 159c37.333 45.333 87.666 68 150.999 68c43.333 0 79 -9.33301 107 -28h1z" />
    <glyph glyph-name="ntilde" unicode="&#xf1;" horiz-adv-x="535" 
d="M473 0l-116.001 -0.00195312v239c0 40.667 -3 69.334 -9 86.001c-11.333 28.667 -33.666 43 -66.999 43c-35.333 0 -62.333 -17.333 -81 -52c-14.667 -27.333 -22 -59.666 -22 -96.999v-219h-116v448h110v-61h2c36 47.333 83.667 71 143 71c104 0 156 -58.667 156 -176
v-282zM420.999 634.998c0 -30.667 -6.99805 -55.667 -20.998 -75c-15.333 -20 -36.666 -30 -63.999 -30c-22.667 0 -46.167 5.33301 -70.5 16s-45.5 16 -63.5 16c-27.333 0 -41.333 -12.667 -42 -38h-47c1.33301 27.333 9.66602 51.333 24.999 72
c17.333 22 38.666 33 63.999 33c17.333 0 40.666 -6 69.999 -18s50.333 -18 63 -18c26 0 39 14 39 42h47z" />
    <glyph glyph-name="ograve" unicode="&#xf2;" horiz-adv-x="535" 
d="M441 58c-42.667 -44.667 -100.665 -67.335 -173.998 -68.002c-72.667 0.666992 -130.334 23.334 -173.001 68.001c-40.667 42 -61 96.333 -61 163c0 72.667 22.333 130.667 67 174c43.333 42 99 63 167 63c69.333 0 125.666 -21 168.999 -63
c44 -42.667 66 -100.667 66 -174c0 -67.333 -20.333 -121.666 -61 -162.999zM352.002 327.999c-20 26 -48.333 39.332 -85 39.999c-35.333 -0.666992 -63.333 -14.667 -84 -42c-18.667 -24.667 -28 -55 -28 -91c0 -45.333 8.66699 -81.666 26 -108.999
c19.333 -30.667 48 -46 86 -46c75.333 0 113 51.667 113 155c0 38 -9.33301 69 -28 93zM363.002 507.998h-72l-119 127h119z" />
    <glyph glyph-name="oacute" unicode="&#xf3;" horiz-adv-x="535" 
d="M441 58c-42.667 -44.667 -100.665 -67.335 -173.998 -68.002c-72.667 0.666992 -130.334 23.334 -173.001 68.001c-40.667 42 -61 96.333 -61 163c0 72.667 22.333 130.667 67 174c43.333 42 99 63 167 63c69.333 0 125.666 -21 168.999 -63
c44 -42.667 66 -100.667 66 -174c0 -67.333 -20.333 -121.666 -61 -162.999zM352.002 327.999c-20 26 -48.333 39.332 -85 39.999c-35.333 -0.666992 -63.333 -14.667 -84 -42c-18.667 -24.667 -28 -55 -28 -91c0 -45.333 8.66699 -81.666 26 -108.999
c19.333 -30.667 48 -46 86 -46c75.333 0 113 51.667 113 155c0 38 -9.33301 69 -28 93zM244.002 507.998h-72l72 127h119z" />
    <glyph glyph-name="ocircumflex" unicode="&#xf4;" horiz-adv-x="535" 
d="M441 58c-42.667 -44.667 -100.665 -67.335 -173.998 -68.002c-72.667 0.666992 -130.334 23.334 -173.001 68.001c-40.667 42 -61 96.333 -61 163c0 72.667 22.333 130.667 67 174c43.333 42 99 63 167 63c69.333 0 125.666 -21 168.999 -63
c44 -42.667 66 -100.667 66 -174c0 -67.333 -20.333 -121.666 -61 -162.999zM352.002 327.999c-20 26 -48.333 39.332 -85 39.999c-35.333 -0.666992 -63.333 -14.667 -84 -42c-18.667 -24.667 -28 -55 -28 -91c0 -45.333 8.66699 -81.666 26 -108.999
c19.333 -30.667 48 -46 86 -46c75.333 0 113 51.667 113 155c0 38 -9.33301 69 -28 93zM405.002 507.998h-77l-59 75l-61 -75h-78l96 127h88z" />
    <glyph glyph-name="otilde" unicode="&#xf5;" horiz-adv-x="535" 
d="M441 58c-42.667 -44.667 -100.665 -67.335 -173.998 -68.002c-72.667 0.666992 -130.334 23.334 -173.001 68.001c-40.667 42 -61 96.333 -61 163c0 72.667 22.333 130.667 67 174c43.333 42 99 63 167 63c69.333 0 125.666 -21 168.999 -63
c44 -42.667 66 -100.667 66 -174c0 -67.333 -20.333 -121.666 -61 -162.999zM352.002 327.999c-20 26 -48.333 39.332 -85 39.999c-35.333 -0.666992 -63.333 -14.667 -84 -42c-18.667 -24.667 -28 -55 -28 -91c0 -45.333 8.66699 -81.666 26 -108.999
c19.333 -30.667 48 -46 86 -46c75.333 0 113 51.667 113 155c0 38 -9.33301 69 -28 93zM421.002 634.998c0 -30.667 -6.99805 -55.667 -20.998 -75c-15.333 -20 -36.666 -30 -63.999 -30c-22.667 0 -46.167 5.33301 -70.5 16s-45.5 16 -63.5 16
c-27.333 0 -41.333 -12.667 -42 -38h-47c1.33301 27.333 9.66602 51.333 24.999 72c17.333 22 38.666 33 63.999 33c17.333 0 40.666 -6 69.999 -18s50.333 -18 63 -18c26 0 39 14 39 42h47z" />
    <glyph glyph-name="odieresis" unicode="&#xf6;" horiz-adv-x="535" 
d="M441 58c-42.667 -44.667 -100.665 -67.335 -173.998 -68.002c-72.667 0.666992 -130.334 23.334 -173.001 68.001c-40.667 42 -61 96.333 -61 163c0 72.667 22.333 130.667 67 174c43.333 42 99 63 167 63c69.333 0 125.666 -21 168.999 -63
c44 -42.667 66 -100.667 66 -174c0 -67.333 -20.333 -121.666 -61 -162.999zM352.002 327.999c-20 26 -48.333 39.332 -85 39.999c-35.333 -0.666992 -63.333 -14.667 -84 -42c-18.667 -24.667 -28 -55 -28 -91c0 -45.333 8.66699 -81.666 26 -108.999
c19.333 -30.667 48 -46 86 -46c75.333 0 113 51.667 113 155c0 38 -9.33301 69 -28 93zM407.002 528.998h-101v101h101v-101zM228.002 528.998h-101v101h101v-101z" />
    <glyph glyph-name="divide" unicode="&#xf7;" horiz-adv-x="525" 
d="M483 175h-441v90h441v-90zM330 47c0 -42.667 -22.333 -65 -67 -67c-44.667 2 -67 24.333 -67 67s22.333 65 67 67c44.667 -2 67 -24.333 67 -67zM330 393c0 -42.667 -22.333 -65 -67 -67c-44.667 2 -67 24.333 -67 67s22.333 65 67 67c44.667 -2 67 -24.333 67 -67z" />
    <glyph glyph-name="oslash" unicode="&#xf8;" horiz-adv-x="535" 
d="M336 344c-16.667 15.333 -39.667 23.333 -69 24c-35.333 -0.666992 -63.333 -14.667 -84 -42c-18.667 -24.667 -28 -55 -28 -91c0 -33.333 5.33301 -63 16 -89zM197 106c17.333 -17.333 40.667 -25.999 70 -25.999c75.333 0 113 51.667 113 155
c0 27.333 -5.33301 51.666 -16 72.999zM83.001 -29.999l-36 28l49 58c-42 43.333 -63 98.333 -63 165c0 72.667 22.333 130.667 67 174c43.333 42 99 63 167 63c50 0 94.667 -12.333 134 -37l47 57l35 -29l-47 -56c44 -42.667 66 -100 66 -172
c0 -66.667 -20.333 -121 -61 -163c-42.667 -45.333 -100.667 -68 -174 -68c-54 0 -99.333 12.333 -136 37z" />
    <glyph glyph-name="ugrave" unicode="&#xf9;" horiz-adv-x="535" 
d="M473 0h-109.999v61h-2c-38 -47.333 -87 -71 -147 -71c-50.667 0 -89.334 17 -116.001 51c-24 30.667 -36 72 -36 124v283h116v-239c0 -86 25.333 -129 76 -129c38 0 66 18 84 54c12.667 25.333 19 57 19 95v219h116v-448zM363.001 508h-72l-119 127h119z" />
    <glyph glyph-name="uacute" unicode="&#xfa;" horiz-adv-x="535" 
d="M473 0h-109.999v61h-2c-38 -47.333 -87 -71 -147 -71c-50.667 0 -89.334 17 -116.001 51c-24 30.667 -36 72 -36 124v283h116v-239c0 -86 25.333 -129 76 -129c38 0 66 18 84 54c12.667 25.333 19 57 19 95v219h116v-448zM244.001 508h-72l72 127h119z" />
    <glyph glyph-name="ucircumflex" unicode="&#xfb;" horiz-adv-x="535" 
d="M473 0h-109.999v61h-2c-38 -47.333 -87 -71 -147 -71c-50.667 0 -89.334 17 -116.001 51c-24 30.667 -36 72 -36 124v283h116v-239c0 -86 25.333 -129 76 -129c38 0 66 18 84 54c12.667 25.333 19 57 19 95v219h116v-448zM405.001 508h-77l-59 75l-61 -75h-78l96 127h88z
" />
    <glyph glyph-name="udieresis" unicode="&#xfc;" horiz-adv-x="535" 
d="M473 0h-109.999v61h-2c-38 -47.333 -87 -71 -147 -71c-50.667 0 -89.334 17 -116.001 51c-24 30.667 -36 72 -36 124v283h116v-239c0 -86 25.333 -129 76 -129c38 0 66 18 84 54c12.667 25.333 19 57 19 95v219h116v-448zM407.001 529h-101v101h101v-101zM228.001 529
h-101v101h101v-101z" />
    <glyph glyph-name="yacute" unicode="&#xfd;" 
d="M281 -68c-32.667 -83.333 -85.667 -125 -159 -125c-28 0 -55.667 4 -83 12l8 86c14 -5.33301 34 -8 60 -8c24 0 42.667 7.66699 56 23c13.333 14.667 20 33.667 20 57l-171 471h128l108 -327h2l107 327h119zM220 508h-72l72 127h119z" />
    <glyph glyph-name="thorn" unicode="&#xfe;" horiz-adv-x="535" 
d="M178 -182h-115.999v834h116v-263h2c26 44.667 70.667 67 134 67c64 0 112.333 -22.333 145 -67c28.667 -39.333 43 -92 43 -158c0 -70 -13.667 -126 -41 -168c-32 -48.667 -81 -73 -147 -73c-56.667 0 -101.334 20 -134.001 60h-2v-232zM282.001 80
c33.333 0 58.666 16.001 75.999 48.001c14.667 26 22 58.333 22 97c0 95.333 -32 143 -96 143c-34.667 0 -61.667 -16 -81 -48c-16 -26.667 -24 -58.334 -24 -95.001c0 -34.667 7.66699 -65.667 23 -93c18.667 -34.667 45.334 -52 80.001 -52z" />
    <glyph glyph-name="ydieresis" unicode="&#xff;" 
d="M281 -68c-32.667 -83.333 -85.667 -125 -159 -125c-28 0 -55.667 4 -83 12l8 86c14 -5.33301 34 -8 60 -8c24 0 42.667 7.66699 56 23c13.333 14.667 20 33.667 20 57l-171 471h128l108 -327h2l107 327h119zM383 529h-101v101h101v-101zM204 529h-101v101h101v-101z" />
    <glyph glyph-name="dotlessi" unicode="&#x131;" horiz-adv-x="242" 
d="M179 0h-116v448h116v-448z" />
    <glyph glyph-name="Lslash" unicode="&#x141;" horiz-adv-x="435" 
d="M428 0h-358v211l-63 -38v80l63 38v316h122v-244l146 87v-80l-146 -87v-187h236v-96z" />
    <glyph glyph-name="lslash" unicode="&#x142;" horiz-adv-x="242" 
d="M179 0h-116v255l-63 -38v80l63 38v317h116v-248l63 37v-79l-63 -38v-324z" />
    <glyph glyph-name="OE" unicode="&#x152;" horiz-adv-x="824" 
d="M428 511c-12.667 2 -34 3.66699 -64 5c-62.667 -0.666992 -111 -20.667 -145 -60c-32.667 -38 -49 -90 -49 -156c0 -62.667 16.667 -113 50 -151c35.333 -39.333 84.333 -59 147 -59c24.667 0 45 2 61 6v415zM779 0h-230.001c-21.333 -0 -53.666 -0.666992 -96.999 -2
c-43.333 -2 -76 -3 -98 -3c-207.333 0 -311 101.667 -311 305c0 208 109 312 327 312c19.333 0 49 -0.666992 89 -2c40 -2 70 -3 90 -3h226v-96h-226v-149h207v-96h-207v-170h230v-96z" />
    <glyph glyph-name="oe" unicode="&#x153;" horiz-adv-x="824" 
d="M267 75c77.333 0 116.001 49 116.001 147c0 100.667 -38.667 151 -116 151c-36.667 0 -65.334 -16.333 -86.001 -49c-17.333 -28 -26 -61.667 -26 -101c0 -98.667 37.333 -148 112 -148zM760.001 24c-42 -22.667 -88.665 -34 -139.998 -34c-88 0 -148.667 24.333 -182 73
c-36.667 -48.667 -91.334 -73 -164.001 -73c-74.667 0 -134 22 -178 66c-42 42.667 -63 97.667 -63 165c0 72 22.333 130 67 174c43.333 42 99 63 167 63c71.333 0 127 -25.667 167 -77c34 51.333 86 77 156 77c134 0 201 -90 201 -270h-292c4 -75.333 45.333 -113 124 -113
c49.333 0 93.666 14.667 132.999 44zM680.003 268c-2.66699 68 -32.333 103 -89 105c-29.333 -0.666992 -52.333 -11.667 -69 -33c-15.333 -18.667 -23 -42.667 -23 -72h181z" />
    <glyph glyph-name="Scaron" unicode="&#x160;" 
d="M313 342c88 -37.333 131.999 -93.667 131.999 -169c0 -62 -22.333 -109 -67 -141c-40 -28 -93.333 -42 -160 -42c-41.333 0 -93.333 7.66699 -156 23l11 110c45.333 -25.333 91.333 -38 138 -38c26.667 0 50.334 6 71.001 18c24 14.667 36 34.667 36 60
c0 28.667 -13.667 50 -41 64c-11.333 6 -35.333 16.667 -72 32c-32 13.333 -56.333 25.333 -73 36c-53.333 33.333 -80 79 -80 137c0 62.667 21.667 110 65 142c37.333 28.667 86.333 43 147 43c53.333 0 102 -7.33301 146 -22l-12 -100c-40 17.333 -81 26 -123 26
c-64 0 -96 -28 -96 -84c0 -26 28.667 -51 86 -75zM289.999 644.999h-88l-96 127h78l61 -74l59 74h77z" />
    <glyph glyph-name="scaron" unicode="&#x161;" horiz-adv-x="390" 
d="M328 354c-36.667 12.667 -71.334 19.001 -104.001 19.001c-44 0 -67 -16.667 -69 -50c0.666992 -18 22.334 -33.667 65.001 -47c51.333 -15.333 87 -33.333 107 -54s30 -49.334 30 -86.001c0 -50 -19.333 -87.667 -58 -113c-32.667 -22 -75.667 -33 -129 -33
c-46 0 -90 6.33301 -132 19l7 95c36.667 -19.333 74.667 -29 114 -29c18.667 0 35 3.66699 49 11c18.667 10 28 24.333 28 43c0 22 -10.667 37.333 -32 46l-44 12c-23.333 6.66699 -42.333 13.667 -57 21c-46.667 23.333 -70 60.333 -70 111c0 45.333 17.667 80.333 53 105
c32 22.667 73 34 123 34c44 0 86.333 -5.66699 127 -17zM241 508.001h-88l-96 127h78l61 -74l59 74h77z" />
    <glyph glyph-name="Ydieresis" unicode="&#x178;" horiz-adv-x="584" 
d="M355 0h-122v240l-221 367h142l143 -255l146 255h129l-217 -367v-240zM432 688h-101v101h101v-101zM253 688h-101v101h101v-101z" />
    <glyph glyph-name="Zcaron" unicode="&#x17d;" 
d="M454 0h-421v99l285 412h-273v96h403v-100l-288 -411h294v-96zM290 645h-88l-96 127h78l61 -74l59 74h77z" />
    <glyph glyph-name="zcaron" unicode="&#x17e;" horiz-adv-x="439" 
d="M405 0h-372v95l227 262h-217v91h354v-96l-222 -262h230v-90zM266 508h-88l-96 127h78l61 -74l59 74h77z" />
    <glyph glyph-name="florin" unicode="&#x192;" 
d="M262 -3c-10 -54.667 -23.667 -95.667 -41 -123c-28 -44.667 -68.667 -67 -122 -67c-38 0 -68 3 -90 9l17 86c16.667 -3.33301 32 -5 46 -5c34 0 54.667 26.667 62 80l61 306h-98l13 70h99l27 121c11.333 48.667 29 84 53 106c26 24.667 64.333 37 115 37
c24 0 48.333 -2.66699 73 -8l-15 -92c-24.667 6.66699 -41.667 10 -51 10c-30.667 0 -51 -24 -61 -72l-21 -102h105l-11 -70h-108z" />
    <glyph glyph-name="circumflex" unicode="&#x2c6;" horiz-adv-x="246" 
d="M260 508h-77l-59 75l-61 -75h-78l96 127h88z" />
    <glyph glyph-name="caron" unicode="&#x2c7;" horiz-adv-x="242" 
d="M167 508h-88l-96 127h78l61 -74l59 74h77z" />
    <glyph glyph-name="breve" unicode="&#x2d8;" horiz-adv-x="242" 
d="M262 634c-2.66699 -39.333 -17.668 -71.333 -45.001 -96c-26 -24 -58.333 -36 -97 -36c-38 0 -70 12 -96 36c-27.333 24.667 -42.333 56.667 -45 96h54c11.333 -46 40.333 -69 87 -69s76.334 23 89.001 69h53z" />
    <glyph glyph-name="dotaccent" unicode="&#x2d9;" horiz-adv-x="242" 
d="M171 529h-101v101h101v-101z" />
    <glyph glyph-name="ring" unicode="&#x2da;" horiz-adv-x="242" 
d="M121 688c25.333 0 47.333 -9 66 -27c18 -18.667 27 -40.667 27 -66s-9 -47 -27 -65c-18.667 -18 -40.667 -27 -66 -27s-47 9 -65 27s-27 39.667 -27 65s9 47.333 27 66c18 18 39.667 27 65 27zM153 563c9.33301 8.66699 14 19.334 14 32.001s-4.66699 23.334 -14 32.001
c-8.66699 9.33301 -19.334 14 -32.001 14s-23.334 -4.66699 -32.001 -14c-8.66699 -8.66699 -13 -19.334 -13 -32.001s4.33301 -23.334 13 -32.001s19.334 -13 32.001 -13s23.334 4.33301 32.001 13z" />
    <glyph glyph-name="ogonek" unicode="&#x2db;" horiz-adv-x="242" 
d="M247 -124c-20 -46 -56.332 -68.999 -108.999 -68.999c-56.667 0 -85 26 -85 78c0 43.333 34.667 81.666 104 114.999h43c-48 -38 -72 -73.667 -72 -107c0 -26 11.667 -39 35 -39c19.333 1.33301 35.666 11 48.999 29z" />
    <glyph glyph-name="tilde" unicode="&#x2dc;" horiz-adv-x="246" 
d="M277 635c0 -30.667 -6.99805 -55.667 -20.998 -75c-15.333 -20 -36.666 -30 -63.999 -30c-22.667 0 -46.167 5.33301 -70.5 16s-45.5 16 -63.5 16c-27.333 0 -41.333 -12.667 -42 -38h-47c1.33301 27.333 9.66602 51.333 24.999 72c17.333 22 38.666 33 63.999 33
c17.333 0 40.666 -6 69.999 -18s50.333 -18 63 -18c26 0 39 14 39 42h47z" />
    <glyph glyph-name="hungarumlaut" unicode="&#x2dd;" horiz-adv-x="242" 
d="M182 508h-72l72 127h120zM11 507h-72l72 127h119z" />
    <glyph glyph-name="Omega" unicode="&#x3a9;" horiz-adv-x="658" 
d="M607 0l-237.001 -0.000976562v163c44.667 9.33301 79.334 31.333 104.001 66c23.333 32.667 35 72.334 35 119.001c0 54 -17 99.333 -51 136c-35.333 38 -80 57 -134 57s-98.667 -19 -134 -57c-34.667 -37.333 -52 -83.333 -52 -138c0 -98.667 45.667 -159.667 137 -183
v-163h-235v79h159v41c-106 34 -159 111.667 -159 233c0 78.667 27.667 144.334 83 197.001c54 51.333 120.667 77 200 77c80 0 147 -25 201 -75c55.333 -51.333 83 -117 83 -197c0 -56 -13.333 -104.667 -40 -146c-28.667 -44.667 -68.667 -74.334 -120 -89.001v-41h160v-79
z" />
    <glyph glyph-name="pi" unicode="&#x3c0;" horiz-adv-x="512" 
d="M492 11c-24.667 -11.333 -48.668 -17 -72.001 -17c-35.333 0 -59.666 11 -72.999 33c-9.33301 16 -14 42.667 -14 80v229h-184v-336h-87v336h-61v84h488v-84h-68v-220c0 -31.333 11 -47 33 -47c11.333 0 24 2.66699 38 8v-66z" />
    <glyph glyph-name="uni0E00" unicode="&#xe00;" horiz-adv-x="195" 
 />
    <glyph glyph-name="uni0E01" unicode="&#xe01;" horiz-adv-x="531" 
d="M493 0l-120 0.00195312v327c0 32 -9.66699 57 -29 75c-18.667 18 -44 27 -76 27c-51.333 0 -89.333 -18.667 -114 -56l56 -72c-28 -18.667 -42 -44.334 -42 -77.001v-224h-120v215c0 35.333 14 65 42 89c0.666992 0 -19 22 -59 66c13.333 42.667 41.333 78 84 106
c44.667 30.667 95.667 46 153 46c64 0 117.667 -18 161 -54c42.667 -36.667 64 -82.334 64 -137.001v-331z" />
    <glyph glyph-name="uni0E02" unicode="&#xe02;" horiz-adv-x="491" 
d="M453 187c0 -129.333 -68.333 -194.001 -205 -194.001c-68 0 -120.667 17 -158 51c-35.333 32 -53 74.667 -53 128v57c0 30.667 14 62 42 94c34 38.667 53 63 57 73v4c0 8.66699 -4.66699 13 -14 13h-84v98h108c32.667 0 58.667 -9 78 -27
c17.333 -17.333 26 -39.666 26 -66.999v-17c0 -22.667 -15.333 -51.667 -46 -87c-31.333 -35.333 -47 -63.333 -47 -84v-45c0 -65.333 30.333 -98 91 -98c56.667 0 85 33.333 85 100v325h120v-324z" />
    <glyph glyph-name="uni0E03" unicode="&#xe03;" horiz-adv-x="498" 
d="M460 187c0 -129.333 -68.667 -194.001 -206 -194.001c-68 0 -121 17 -159 51c-35.333 32 -53 74.667 -53 128v65c0 26.667 15 56 45 88c34 35.333 52.667 59.333 56 72v15c0 6.66699 -4 10 -12 10c-10 0 -18.667 -8.66699 -26 -26l-83 37v84l71 -36
c20 23.333 43 35 69 35c28.667 0 51.667 -9 69 -27c16.667 -17.333 25 -39.666 25 -66.999v-15c0 -28.667 -15.667 -60 -47 -94s-47 -59.667 -47 -77v-52c0 -65.333 30.667 -98 92 -98c57.333 0 86 33.333 86 100v325h120v-324z" />
    <glyph glyph-name="uni0E04" unicode="&#xe04;" horiz-adv-x="542" 
d="M504 0h-119.998v331c0 65.333 -37.667 98 -113 98c-34 0 -61.333 -8.33301 -82 -25c-20.667 -18 -31 -42.333 -31 -73v-94h2c21.333 25.333 47 38 77 38h79v-100h-92c-18.667 0 -34.334 -6.33301 -47.001 -19c-12.667 -12 -19 -27.333 -19 -46v-110h-120v331
c0 57.333 21.333 103.333 64 138c42.667 35.333 99 53 169 53c69.333 0 125.666 -17.667 168.999 -53c42.667 -35.333 64 -81.333 64 -138v-331z" />
    <glyph glyph-name="uni0E05" unicode="&#xe05;" horiz-adv-x="552" 
d="M514 0l-119.999 0.000976562v369c0 29.333 -12 48.666 -36 57.999l-78 -53l-85 53c-24.667 -8.66699 -37 -28 -37 -58v-132h2c21.333 25.333 47 38 77 38h79v-100h-92c-18.667 0 -34.334 -6.33301 -47.001 -19c-12.667 -12 -19 -27.333 -19 -46v-110h-120v352
c0 99.333 49.333 158.333 148 177l93 -66c58 43.333 87 65.333 87 66c46.667 -8.66699 83 -28.667 109 -60c26 -30.667 39 -69.667 39 -117v-352z" />
    <glyph glyph-name="uni0E06" unicode="&#xe06;" horiz-adv-x="551" 
d="M513 198c0 -64 -17.333 -114.001 -52 -150.001c-35.333 -36.667 -84 -55 -146 -55c-49.333 0 -91 22.333 -125 67v-60h-122v237c0 26.667 14.333 56 43 88c32.667 36 50.667 60 54 72v15c0 6.66699 -4 10 -12 10c-10 0 -18.667 -8.66699 -26 -26l-83 37v84l71 -36
c20 23.333 43 35 69 35c28.667 0 51.667 -9 69 -27c16.667 -17.333 25 -39.666 25 -66.999v-15c0 -28.667 -15 -60 -45 -94s-45 -59.667 -45 -77v-62c26.667 -58 63 -87 109 -87c64 0 96 37 96 111v314h120v-314z" />
    <glyph glyph-name="uni0E07" unicode="&#xe07;" horiz-adv-x="522" 
d="M263 95c30 0 55.001 16.334 75.001 49.001c20.667 34 31 77 31 129c0 100 -31 150 -93 150c-26.667 0 -48.334 -4 -65.001 -12l-3 97c28 9.33301 55 14 81 14c58.667 0 106.667 -22 144 -66c38 -45.333 57 -106.333 57 -183c0 -82.667 -22.333 -149.334 -67 -200.001
c-44 -48.667 -100.333 -73 -169 -73h-105l-147 519h124l120 -424h17z" />
    <glyph glyph-name="uni0E08" unicode="&#xe08;" horiz-adv-x="516" 
d="M259 94c30 1.33301 54.668 16.667 74.001 46c21.333 32 32 73 32 123c0 108.667 -43.667 163 -131 163c-57.333 0 -111.333 -26 -162 -78l-49 83c60.667 60.667 131 91 211 91c79.333 0 141 -22.667 185 -68c43.333 -46 65 -109.667 65 -191
c0 -76.667 -21.667 -139.667 -65 -189c-44 -49.333 -100.667 -74 -170 -74h-85l-44 183c-3.33301 13.333 -11.333 20 -24 20h-38v97h70c51.333 0 83.666 -25 96.999 -75z" />
    <glyph glyph-name="uni0E09" unicode="&#xe09;" horiz-adv-x="531" 
d="M493 0l-120.002 0.000976562v59c-27.333 -44 -71.666 -66 -132.999 -66c-55.333 0 -98.666 15.333 -129.999 46c-30 29.333 -45 67.666 -45 114.999v26c0 8 -3.33301 12 -10 12h-31v101h73c25.333 0 46 -8.33301 62 -25c16 -16 24 -36.667 24 -62v-41
c0 -52.667 24.667 -79 74 -79c25.333 0 49 8.66699 71 26c22 16.667 37 38 45 64v108c0 93.333 -40.333 140 -121 140c-69.333 0 -129.333 -24.667 -180 -74l-49 81c62 60.667 136.667 91 224 91c78 0 138.667 -20.667 182 -62c42.667 -40 64 -95.667 64 -167v-293z" />
    <glyph glyph-name="uni0E0A" unicode="&#xe0a;" horiz-adv-x="493" 
d="M455 187c0 -129.333 -69 -194.002 -207 -194.002c-68 0 -120.667 17 -158 51c-35.333 32 -53 74.667 -53 128v57c0 30.667 14 62 42 94c34 38.667 53 63 57 73v4c0 8.66699 -4.66699 13 -14 13h-84v98h108c32.667 0 58.667 -9 78 -27
c17.333 -17.333 26 -39.666 26 -66.999v-17c0 -22.667 -15.333 -51.667 -46 -87c-31.333 -35.333 -47 -63.333 -47 -84v-45c0 -65.333 30.333 -98 91 -98c58 0 87 33.333 87 100v76c0 30 -12.333 45 -37 45h-23l-14 50l88 154h126l-96 -145
c50.667 -17.333 76 -56.666 76 -117.999v-61z" />
    <glyph glyph-name="uni0E0B" unicode="&#xe0b;" horiz-adv-x="500" 
d="M462 187c0 -129.333 -69 -194.002 -207 -194.002c-68 0 -120.667 17 -158 51c-35.333 32 -53 74.667 -53 128v65c0 26.667 15 56 45 88c34 35.333 52.667 59.333 56 72v15c0 6.66699 -4 10 -12 10c-10 0 -18.667 -8.66699 -26 -26l-83 37v84l71 -36
c20 23.333 43 35 69 35c28.667 0 51.667 -9 69 -27c16.667 -17.333 25 -39.666 25 -66.999v-15c0 -28.667 -15.667 -60 -47 -94s-47 -59.667 -47 -77v-52c0 -65.333 30.333 -98 91 -98c58 0 87 33.333 87 100v76c0 30 -12.333 45 -37 45h-23l-14 50l88 154h126l-96 -145
c50.667 -17.333 76 -56.666 76 -117.999v-61z" />
    <glyph glyph-name="uni0E0C" unicode="&#xe0c;" horiz-adv-x="824" 
d="M786 198c0 -136.667 -56.332 -204.998 -168.999 -204.998c-57.333 0 -100 22.333 -128 67v-60h-120v327c0 68 -33.333 102 -100 102c-52 0 -90.333 -18.667 -115 -56l56 -72c-28 -18.667 -42 -44.334 -42 -77.001v-116c0 -10 4.66699 -15 14 -15h38v-93h-74
c-26.667 0 -49.667 9.66699 -69 29s-29 42.666 -29 69.999v116c0 35.333 14 65 42 89c0.666992 0 -19 22 -59 66c13.333 42 41.333 77.333 84 106c45.333 30.667 96.666 46 153.999 46c64 0 116.667 -18 158 -54c41.333 -35.333 62 -80 62 -134v-160
c23.333 -58 55.333 -87 96 -87c31.333 0 53 9 65 27c10.667 16 16 44 16 84v313h120v-313z" />
    <glyph glyph-name="uni0E0D" unicode="&#xe0d;" horiz-adv-x="824" 
d="M786 71c0 -66 -19.9971 -117.997 -59.9971 -155.997c-40 -38.667 -95.333 -58 -166 -58c-49.333 0 -99 10.667 -149 32l13 94c41.333 -22.667 86.333 -34 135 -34c31.333 0 56.666 9.66699 75.999 29c20.667 20 31 46.333 31 79v23
c-8.66699 -18.667 -25.334 -34.334 -50.001 -47.001c-23.333 -13.333 -47 -20 -71 -20c-52.667 0 -95 15 -127 45c-32.667 30.667 -49 72.667 -49 126v142c0 68.667 -33.333 103 -100 103c-52 0 -90.333 -18.667 -115 -56l56 -72c-28 -18.667 -42 -44.334 -42 -77.001v-116
c0 -10 4.66699 -15 14 -15h38v-93h-74c-26.667 0 -49.667 9.66699 -69 29s-29 42.666 -29 69.999v116c0 35.333 14 65 42 89c0.666992 0 -19 22 -59 66c13.333 42 41.333 77.333 84 106c45.333 30.667 96.666 46 153.999 46c64 0 116.667 -18 158 -54s62 -81 62 -135v-137
c0 -62.667 26.333 -94 79 -94c22 0 42.333 8.33301 61 25c18 16.667 30.333 38.667 37 66v318h120v-440z" />
    <glyph glyph-name="uni0E0E" unicode="&#xe0e;" horiz-adv-x="550" 
d="M512 -200h-128c-30 28 -65 42 -105 42c-54.667 0 -101.334 -16.333 -140.001 -49l-31 91c40.667 40 89 60 145 60s102.333 -21 139 -63v446c0 32 -9.66699 57 -29 75c-18.667 18 -44 27 -76 27c-51.333 0 -89.333 -18.667 -114 -56l56 -72
c-26.667 -17.333 -40 -43 -40 -77v-129c0 -24.667 -8.66699 -46.667 -26 -66c-18 -19.333 -38.667 -29 -62 -29h-79v93h37c6.66699 0 10 3.66699 10 11v111c0 36.667 13.333 66.334 40 89.001c0.666992 0 -19 22 -59 66c13.333 42.667 41.333 78 84 106
c44.667 30.667 95.667 46 153 46c64.667 0 118.334 -18 161.001 -54c42.667 -36.667 64 -82.334 64 -137.001v-531z" />
    <glyph glyph-name="uni0E0F" unicode="&#xe0f;" horiz-adv-x="550" 
d="M512 -200h-103l-95 73c-6.66699 -23.333 -22 -42.333 -46 -57c-22.667 -14.667 -46.667 -22 -72 -22c-44 0 -84 12.333 -120 37l23 92c30.667 -24 63 -36 97 -36c20.667 0 40 10 58 30c17.333 20 26.666 42.667 27.999 68l110 -76v418c0 32 -9.66699 57 -29 75
c-18.667 18 -44 27 -76 27c-51.333 0 -89.333 -18.667 -114 -56l56 -72c-26.667 -17.333 -40 -43 -40 -77v-129c0 -24.667 -8.66699 -46.667 -26 -66c-18 -19.333 -38.667 -29 -62 -29h-79v93h37c6.66699 0 10 3.66699 10 11v111c0 36.667 13.333 66.334 40 89.001
c0.666992 0 -19 22 -59 66c13.333 42.667 41.333 78 84 106c44.667 30.667 95.667 46 153 46c64.667 0 118.334 -18 161.001 -54c42.667 -36.667 64 -82.334 64 -137.001v-531z" />
    <glyph glyph-name="uni0E10" unicode="&#xe10;" horiz-adv-x="524" 
d="M259 94c30 1.33301 55.001 16.666 75.001 45.999c22 32 33 74.333 33 127c0 110.667 -44.333 166 -133 166c-57.333 0 -111.333 -26 -162 -78l-49 83c60.667 60.667 131 91 211 91c46 0 85 -9.33301 117 -28c0.666992 0 18 18.333 52 55h139l-113 -113
c38 -43.333 57 -102 57 -176c0 -79.333 -22 -143.666 -66 -192.999s-101 -74 -171 -74h-85l-44 183c-3.33301 13.333 -11.333 20 -24 20h-38v97h70c51.333 0 83.666 -25 96.999 -75zM457.001 -200h-134.999c-40.667 0 -71 15 -91 45c-24 -30 -56 -45 -96 -45h-76v89h80
c34.667 0 65 18 91 54c27.333 -36 56.666 -54 87.999 -54h33v51h106v-140z" />
    <glyph glyph-name="uni0E11" unicode="&#xe11;" horiz-adv-x="555" 
d="M517 0l-120.001 0.000976562v350c0 49.333 -17.667 74 -53 74c-44 0 -81.333 -24.667 -112 -74c-26.667 -43.333 -40 -88 -40 -134v-216h-120v212c0 27.333 22.333 85.666 67 174.999v25c0 6.66699 -5 10 -15 10s-18.667 -8.66699 -26 -26l-83 37v84l71 -36
c20 23.333 43 35 69 35c44.667 0 70.334 -19.667 77.001 -59c25.333 41.333 64 62 116 62c112.667 0 169 -60.667 169 -182v-337z" />
    <glyph glyph-name="uni0E12" unicode="&#xe12;" horiz-adv-x="880" 
d="M842 198c0 -136.667 -56.3311 -205 -168.998 -205c-57.333 0 -100 22.333 -128 67v-60h-120v358c0 35.333 -14.667 57 -44 65l-53 -49c-38.667 32.667 -58.334 49 -59.001 49c-66 -20 -99 -74.333 -99 -163c0 -53.333 14.333 -95.333 43 -126
c23.333 -26 49.666 -39 78.999 -39c24.667 0 45.667 4.33301 63 13v-97c-20 -9.33301 -47.333 -14 -82 -14c-58 0 -108.667 22.667 -152 68c-47.333 50 -71 115 -71 195c0 76.667 20.667 138.334 62 185.001c40 46 95.333 72.667 166 80l50 -50l53 50
c50.667 -4.66699 91 -23.334 121 -56.001c28.667 -32 43 -72 43 -120v-175c23.333 -58 55.333 -87 96 -87c31.333 0 53 9 65 27c10.667 16 16 44 16 84v314h120v-314z" />
    <glyph glyph-name="uni0E13" unicode="&#xe13;" horiz-adv-x="826" 
d="M788 0l-120.999 0.00195312v59c-27.333 -44 -71.666 -66 -132.999 -66c-50.667 0 -91 16.333 -121 49c-29.333 32.667 -44 75 -44 127v158c0 68 -33.333 102 -100 102c-52 0 -90.333 -18.667 -115 -56l56 -72c-28 -18.667 -42 -44.334 -42 -77.001v-116
c0 -10 4.66699 -15 14 -15h38v-93h-74c-26.667 0 -49.667 9.66699 -69 29s-29 42.666 -29 69.999v116c0 35.333 14 65 42 89c0.666992 0 -19 22 -59 66c13.333 42 41.333 77.333 84 106c45.333 30.667 96.666 46 153.999 46c64 0 116.667 -18 158 -54s62 -81 62 -135v-143
c0 -69.333 29.333 -104 88 -104c18.667 0 36.667 9 54 27s29.666 40 36.999 66v332h120v-511z" />
    <glyph glyph-name="uni0E14" unicode="&#xe14;" horiz-adv-x="577" 
d="M539 0l-120 -0.00195312v304c0 36.667 -11.667 66 -35 88c-22.667 22 -52.667 33 -90 33c-42 0 -75.667 -15 -101 -45c-26.667 -31.333 -40 -74.666 -40 -129.999s12.333 -96.666 37 -123.999c18.667 -20.667 41 -31 67 -31c24 0 52 5.66699 84 17v-97
c-26.667 -12 -57 -18 -91 -18c-60 0 -109.667 20 -149 60c-46 46 -69 110.333 -69 193c0 78 24 142.667 72 194c48.667 52 112 78 190 78c74.667 0 134.667 -21.333 180 -64c43.333 -41.333 65 -93 65 -155v-303z" />
    <glyph glyph-name="uni0E15" unicode="&#xe15;" horiz-adv-x="595" 
d="M557 0h-119.999v358c0 35.333 -14.667 57 -44 65l-66 -62c-50 41.333 -75.333 62 -76 62c-66 -20 -99 -74.333 -99 -163c0 -53.333 13.667 -95.333 41 -126c23.333 -26 49 -39 77 -39c19.333 0 45 5.66699 77 17v-97c-26.667 -12 -57.334 -18 -92.001 -18
c-58 0 -108.667 22.667 -152 68c-47.333 50 -71 115 -71 195c0 76.667 20.667 138.334 62 185.001c40 46 95.333 72.667 166 80l67 -63l66 63c50.667 -4.66699 91 -23.334 121 -56.001c28.667 -32 43 -72 43 -120v-349z" />
    <glyph glyph-name="uni0E16" unicode="&#xe16;" horiz-adv-x="532" 
d="M494 0l-120 0.00195312v327c0 68 -34 102 -102 102c-54 0 -93.333 -18.667 -118 -56l56 -72c-28 -18.667 -42 -44.334 -42 -77.001v-116c0 -10 4.66699 -15 14 -15h38v-93h-74c-26.667 0 -49.667 9.66699 -69 29s-29 42.666 -29 69.999v116c0 35.333 14 65 42 89
c0.666992 0 -19 22 -59 66c13.333 42 42 77.333 86 106c46 30.667 97.667 46 155 46c64 0 117 -18 159 -54s63 -81 63 -135v-333z" />
    <glyph glyph-name="uni0E17" unicode="&#xe17;" horiz-adv-x="529" 
d="M491 0h-119.999v328c0 64.667 -28.333 97 -85 97c-59.333 0 -102 -28 -128 -84v-341h-120v511h120v-53c36.667 42.667 83.667 64 141 64c61.333 0 108.666 -16.667 141.999 -50c33.333 -34 50 -82.667 50 -146v-326z" />
    <glyph glyph-name="uni0E18" unicode="&#xe18;" horiz-adv-x="502" 
d="M474 169c0 -60.667 -17.666 -105 -52.999 -133c-35.333 -28.667 -91.333 -43 -168 -43c-147.333 0 -221 60.667 -221 182v33h116v-33c0 -59.333 35 -89 105 -89c37.333 0 64 6.33301 80 19c15.333 12.667 23 34 23 64v21c0 24 -10.667 37 -32 39l-157 14
c-40 3.33301 -72.333 17 -97 41c-25.333 24.667 -38 55.667 -38 93c0 42.667 18.333 77.334 55 104.001c38 27.333 89.333 41 154 41c75.333 0 144.333 -16 207 -48l-17 -99c-54 34 -114.667 51 -182 51c-68 0 -102 -16 -102 -48c0 -24.667 11.333 -38.334 34 -41.001
l169 -16c35.333 -3.33301 64.666 -17 87.999 -41c24 -24.667 36 -54.667 36 -90v-21z" />
    <glyph glyph-name="uni0E19" unicode="&#xe19;" horiz-adv-x="527" 
d="M489 0h-121v55c-29.333 -41.333 -72.333 -62 -129 -62c-61.333 0 -110 18.333 -146 55c-36.667 36.667 -55 87.667 -55 153v310h120v-296c0 -86 35.333 -129 106 -129c21.333 0 42.333 8.66699 63 26c20.667 18 34.667 40.333 42 67v332h120v-511z" />
    <glyph glyph-name="uni0E1A" unicode="&#xe1a;" horiz-adv-x="538" 
d="M500 195c0 -64.667 -21 -114.667 -63 -150c-40.667 -34.667 -96.667 -52 -168 -52s-127.333 17.333 -168 52c-42 35.333 -63 85.333 -63 150v316h120v-316c0 -33.333 10.333 -60 31 -80c20 -19.333 46.667 -29 80 -29s60 9.66699 80 29c20.667 20 31 46.667 31 80v316
h120v-316z" />
    <glyph glyph-name="uni0E1B" unicode="&#xe1b;" horiz-adv-x="538" 
d="M500 195c0 -64.667 -21 -114.667 -63 -150c-40.667 -34.667 -96.667 -52 -168 -52s-127.333 17.333 -168 52c-42 35.333 -63 85.333 -63 150v316h120v-316c0 -33.333 10.333 -60 31 -80c20 -19.333 46.667 -29 80 -29s60 9.66699 80 29c20.667 20 31 46.667 31 80v492
h120v-492z" />
    <glyph glyph-name="uni0E1C" unicode="&#xe1c;" horiz-adv-x="579" 
d="M541 0l-101.001 0.000976562l-150 248c-99.333 -165.333 -149.333 -248 -150 -248h-101v417c0 26.667 9 49 27 67c18.667 18 42.334 27 71.001 27h65v-100h-30c-10 0 -15 -5 -15 -15v-158c0 -12 -2.66699 -32.667 -8 -62h3c10 37.333 19 62.666 27 75.999l84 141h54
l83 -141c9.33301 -18 18 -43.333 26 -76h3c-4 25.333 -6 46 -6 62v273h118v-511z" />
    <glyph glyph-name="uni0E1D" unicode="&#xe1d;" horiz-adv-x="579" 
d="M541 0l-101.001 0.000976562l-150 248c-99.333 -165.333 -149.333 -248 -150 -248h-101v417c0 26.667 9 49 27 67c18.667 18 42.334 27 71.001 27h65v-100h-30c-10 0 -15 -5 -15 -15v-158c0 -12 -2.66699 -32.667 -8 -62h3c10 37.333 19 62.666 27 75.999l84 141h54
l83 -141c9.33301 -18 18 -43.333 26 -76h3c-4 25.333 -6 46 -6 62v449h118v-687z" />
    <glyph glyph-name="uni0E1E" unicode="&#xe1e;" horiz-adv-x="618" 
d="M505 0h-104l-92 267l-92 -267h-104l-103 511h124l42 -254c3.33301 -19.333 5 -46 5 -80h4c4 40.667 9 69.334 15 86.001l77 223h64l76 -223c6 -16.667 11.333 -45.334 16 -86.001h4c0 34 1.66699 60.667 5 80l42 254h124z" />
    <glyph glyph-name="uni0E1F" unicode="&#xe1f;" horiz-adv-x="623" 
d="M505 0h-104l-92 267l-92 -267h-104l-103 511h124l42 -254c3.33301 -19.333 5 -46 5 -80h4c4 40.667 9 69.334 15 86.001l77 223h64l76 -223c6 -16.667 11.333 -45.334 16 -86.001h4c0 34 1.66699 60.667 5 80l72 429h124z" />
    <glyph glyph-name="uni0E20" unicode="&#xe20;" horiz-adv-x="550" 
d="M512 0h-120.001v327c0 32 -9.66699 57 -29 75c-18.667 18 -44 27 -76 27c-51.333 0 -89.333 -18.667 -114 -56l56 -72c-26.667 -17.333 -40 -43 -40 -77v-129c0 -24.667 -8.66699 -46.667 -26 -66c-18 -19.333 -38.667 -29 -62 -29h-79v93h37c6.66699 0 10 3.66699 10 11
v111c0 36.667 13.333 66.334 40 89.001c0.666992 0 -19 22 -59 66c13.333 42.667 41.333 78 84 106c44.667 30.667 95.667 46 153 46c64.667 0 118.334 -18 161.001 -54c42.667 -36.667 64 -82.334 64 -137.001v-331z" />
    <glyph glyph-name="uni0E21" unicode="&#xe21;" horiz-adv-x="528" 
d="M490 198c0 -64 -17.332 -114 -51.999 -150c-35.333 -36.667 -84 -55 -146 -55c-54 0 -98 22.333 -132 67v-60h-122v511h120v-337c12 -22.667 29.333 -42.667 52 -60c23.333 -18 44.666 -27 63.999 -27c64 0 96 37 96 111v313h120v-313z" />
    <glyph glyph-name="uni0E22" unicode="&#xe22;" horiz-adv-x="520" 
d="M482 201c0 -138.667 -71.334 -208 -214.001 -208c-154 0 -231 54.333 -231 163c0 58 28 98 84 120v3c-56 18 -84 54.333 -84 109c0 36.667 12.333 67 37 91c24.667 23.333 56.334 35 95.001 35c33.333 0 64 -5.66699 92 -17l-13 -93c-15.333 7.33301 -33.333 11 -54 11
c-28 0 -42 -13.333 -42 -40c0 -15.333 6 -27.333 18 -36c10.667 -8.66699 23.667 -13 39 -13h101l8 -94h-98c-19.333 0 -35.333 -6.66699 -48 -20c-12 -13.333 -18 -30.333 -18 -51c0 -50 36.667 -75 110 -75c65.333 0 98 34.667 98 104v321h120v-310z" />
    <glyph glyph-name="uni0E23" unicode="&#xe23;" horiz-adv-x="453" 
d="M382 372c-52.667 36 -105 54.001 -157 54.001s-78 -16.667 -78 -50c0 -20.667 33.333 -42 100 -64c58 -18.667 98.667 -35.667 122 -51c39.333 -26 59 -60.333 59 -103c0 -50.667 -17 -90.334 -51 -119.001c-36 -30.667 -88.333 -46 -157 -46
s-130.334 15.667 -185.001 47l15 101c58.667 -34.667 111.667 -52 159 -52c66.667 0 100 20.667 100 62c0 17.333 -10.667 31 -32 41c-7.33301 4 -31.333 12.333 -72 25c-57.333 18.667 -96.666 35.667 -117.999 51c-38 26 -57 61.667 -57 107c0 42.667 17 77.667 51 105
c34.667 28 79.667 42 135 42c72.667 0 134 -17 184 -51z" />
    <glyph glyph-name="uni0E24" unicode="&#xe24;" horiz-adv-x="532" 
d="M494 -200l-120 0.00195312v527c0 68 -34 102 -102 102c-54 0 -93.333 -18.667 -118 -56l56 -72c-28 -18.667 -42 -44.334 -42 -77.001v-116c0 -10 4.66699 -15 14 -15h38v-93h-74c-26.667 0 -49.667 9.66699 -69 29s-29 42.666 -29 69.999v116c0 35.333 14 65 42 89
c0.666992 0 -19 22 -59 66c13.333 42 42 77.333 86 106c46 30.667 97.667 46 155 46c64 0 117 -18 159 -54s63 -81 63 -135v-533z" />
    <glyph glyph-name="uni0E25" unicode="&#xe25;" horiz-adv-x="513" 
d="M475 0l-119.999 -0.000976562v221h-108c-70.667 0 -106 -23.333 -106 -70c0 -40.667 21 -61 63 -61c25.333 0 51.666 4.33301 78.999 13l4 -96c-34.667 -9.33301 -65 -14 -91 -14c-51.333 0 -93 15.667 -125 47c-31.333 30 -47 67 -47 111c0 52 19.667 92.333 59 121
c41.333 30 100.666 45 177.999 45h94v16c0 62.667 -35.667 94 -107 94c-61.333 0 -118.666 -25.333 -171.999 -76l-45 81c61.333 60 135 90 221 90c72 0 127.333 -18 166 -54c38 -35.333 57 -85.666 57 -150.999v-317z" />
    <glyph glyph-name="uni0E26" unicode="&#xe26;" horiz-adv-x="550" 
d="M512 -200h-120.001v527c0 32 -9.66699 57 -29 75c-18.667 18 -44 27 -76 27c-51.333 0 -89.333 -18.667 -114 -56l56 -72c-26.667 -17.333 -40 -43 -40 -77v-129c0 -24.667 -8.66699 -46.667 -26 -66c-18 -19.333 -38.667 -29 -62 -29h-79v93h37
c6.66699 0 10 3.66699 10 11v111c0 36.667 13.333 66.334 40 89.001c0.666992 0 -19 22 -59 66c13.333 42.667 41.333 78 84 106c44.667 30.667 95.667 46 153 46c64.667 0 118.334 -18 161.001 -54c42.667 -36.667 64 -82.334 64 -137.001v-531z" />
    <glyph glyph-name="uni0E27" unicode="&#xe27;" horiz-adv-x="489" 
d="M48 141c58 -35.333 109.666 -53 154.999 -53c89.333 0 134 55.333 134 166c0 53.333 -13 95.333 -39 126c-24 28.667 -54 43 -90 43c-56 0 -110.333 -19 -163 -57l-25 95c61.333 40.667 130 61 206 61c68.667 0 124.334 -24 167.001 -72c42.667 -49.333 64 -115 64 -197
c0 -82.667 -22.667 -147 -68 -193c-44 -45.333 -103.333 -68 -178 -68c-72.667 0 -135.667 18.667 -189 56z" />
    <glyph glyph-name="uni0E28" unicode="&#xe28;" horiz-adv-x="556" 
d="M504 0h-119.999v331c0 65.333 -37.667 98 -113 98c-34 0 -61.333 -8.33301 -82 -25c-20.667 -18 -31 -42.333 -31 -73v-94h2c21.333 25.333 47 38 77 38h79v-100h-92c-18.667 0 -34.334 -6.33301 -47.001 -19c-12.667 -12 -19 -27.333 -19 -46v-110h-120v331
c0 57.333 21.333 103.333 64 138c42.667 35.333 99 53 169 53c34.667 0 66.667 -6.33301 96 -19l46 53h131l-89 -108c32.667 -28.667 49 -67.667 49 -117v-331z" />
    <glyph glyph-name="uni0E29" unicode="&#xe29;" horiz-adv-x="568" 
d="M504 195c0 -64.667 -21.001 -114.667 -63.001 -150c-41.333 -34.667 -97.666 -52 -168.999 -52s-127.333 17.333 -168 52c-42.667 35.333 -64 85.333 -64 150v316h120v-316c0 -72.667 37.333 -109 112 -109s112 36.333 112 109v50h-107v101h107v165h120v-165h72l-25 -101
h-47v-50z" />
    <glyph glyph-name="uni0E2A" unicode="&#xe2a;" horiz-adv-x="529" 
d="M477 0h-119.999v221h-108c-70.667 0 -106 -23.333 -106 -70c0 -40.667 21 -61 63 -61c25.333 0 51.666 4.33301 78.999 13l4 -96c-34.667 -9.33301 -65 -14 -91 -14c-51.333 0 -93 15.667 -125 47c-31.333 30 -47 67 -47 111c0 52 19.667 92.333 59 121
c41.333 30 100.666 45 177.999 45h94v16c0 62.667 -35.667 94 -107 94c-61.333 0 -118.666 -25.333 -171.999 -76l-45 81c61.333 60 135 90 221 90c39.333 0 75 -8.33301 107 -25l45 53h131l-98 -110c25.333 -29.333 38 -70.333 38 -123v-317z" />
    <glyph glyph-name="uni0E2B" unicode="&#xe2b;" horiz-adv-x="506" 
d="M508 0h-128.999l-74 224c-10.667 32 -31.667 54 -63 66l-84 -74v-216h-120v511h120v-166l189 166h162l-187 -157c49.333 -24.667 82.666 -61.667 99.999 -111z" />
    <glyph glyph-name="uni0E2C" unicode="&#xe2c;" horiz-adv-x="579" 
d="M541 0h-101l-150 248c-99.333 -165.333 -149.333 -248 -150 -248h-101v511h118v-273c0 -12 -2.66699 -32.667 -8 -62h3c10 37.333 19 62.666 27 75.999l84 141h54l83 -141c9.33301 -18 18 -43.333 26 -76h3c-4 25.333 -6 46 -6 62v200
c0 12.667 -4.33301 23.334 -13 32.001c-8 8.66699 -17.333 13 -28 13h-23l-14 50l88 154h126l-96 -145c52 -18 78 -57.333 78 -118v-424z" />
    <glyph glyph-name="uni0E2D" unicode="&#xe2d;" horiz-adv-x="523" 
d="M240 213l-76.001 -0.000976562c-10 -0.666992 -15 -6 -15 -16v-28c0 -54 35.333 -81 106 -81c43.333 0 73.666 12 90.999 36c18 26 27 72 27 138c0 58 -9.33301 99.333 -28 124s-50 37 -94 37c-66 0 -123 -23.333 -171 -70l-52 82c58 58 132.333 87 223 87
c161.333 0 242 -87.667 242 -263c0 -177.333 -78.667 -266 -236 -266c-73.333 0 -129.666 17 -168.999 51c-36 30.667 -54 71.334 -54 122.001v44c0 29.333 9.66699 53.333 29 72c18.667 17.333 43.334 26 74.001 26h103v-95z" />
    <glyph glyph-name="uni0E2E" unicode="&#xe2e;" horiz-adv-x="523" 
d="M240 213l-76 -0.000976562c-10 -0.666992 -15 -6 -15 -16v-28c0 -54 35.333 -81 106 -81c43.333 0 73.666 12 90.999 36c18.667 26 28 72 28 138c0 58 -9.33301 99.333 -28 124s-50.334 37 -95.001 37c-66 0 -123 -23.333 -171 -70l-52 82c58 58 132.333 87 223 87
c42 0 76 -7 102 -21l42 49h133l-90 -107c36.667 -40.667 55 -102 55 -184c0 -177.333 -78.667 -266 -236 -266c-73.333 0 -129.666 17 -168.999 51c-36 30.667 -54 71.334 -54 122.001v44c0 29.333 9.66699 53.333 29 72c18.667 17.333 43.334 26 74.001 26h103v-95z" />
    <glyph glyph-name="uni0E2F" unicode="&#xe2f;" horiz-adv-x="492" 
d="M453 0h-119.998v347c-26.667 -42 -67.334 -63 -122.001 -63c-54 0 -97.667 16.667 -131 50c-31.333 32 -47 73 -47 123v54h118v-47c0 -26.667 7.66699 -47.667 23 -63c15.333 -16 35.666 -24 60.999 -24c28.667 0 52.667 10.667 72 32c19.333 20.667 29 46 29 76v26h117
v-511z" />
    <glyph glyph-name="uni0E30" unicode="&#xe30;" horiz-adv-x="267" 
d="M232 312h-117c-20.667 0 -39 7 -55 21c-16.667 15.333 -25 35 -25 59v56h101v-28c0 -8 4.66699 -12 14 -12h82v-96zM232 69h-117c-20.667 0 -39 7 -55 21c-16.667 15.333 -25 35 -25 59v56h101v-28c0 -8 4.66699 -12 14 -12h82v-96z" />
    <glyph glyph-name="uni0E31" unicode="&#xe31;" horiz-adv-x="0" 
d="M54 579l-245 -0.000976562c-26 0 -47 7.66699 -63 23c-16 14.667 -24 33.334 -24 56.001v47h97v-24c0 -10 5.66699 -15 17 -15h218v-87z" />
    <glyph glyph-name="uni0E32" unicode="&#xe32;" horiz-adv-x="444" 
d="M406 0l-120.001 -0.000976562v327c0 65.333 -29 98 -87 98c-54.667 0 -106.667 -24 -156 -72l-39 81c53.333 58.667 121 88 203 88c62.667 0 111.334 -18 146.001 -54c35.333 -35.333 53 -84.666 53 -147.999v-320z" />
    <glyph glyph-name="uni0E33" unicode="&#xe33;" horiz-adv-x="440" 
d="M404 0l-120.001 -0.000976562v327c0 65.333 -29 98 -87 98c-54.667 0 -106.667 -24 -156 -72l-39 81c53.333 58.667 121 88 203 88c62.667 0 111.334 -18 146.001 -54c35.333 -35.333 53 -84.666 53 -147.999v-320zM-7.00098 653.999c0 -25.333 -9 -47 -27 -65
s-39.667 -27 -65 -27s-47 9 -65 27s-27 39.667 -27 65s9 47 27 65s39.667 27 65 27s47 -9 65 -27s27 -39.667 27 -65zM-99.001 622.999c20.667 0 31 10.667 31 32c0 20.667 -10.333 31 -31 31s-31 -10.333 -31 -31c0 -21.333 10.333 -32 31 -32z" />
    <glyph glyph-name="uni0E34" unicode="&#xe34;" horiz-adv-x="0" 
d="M-38 579h-399v96h399v-96z" />
    <glyph glyph-name="uni0E35" unicode="&#xe35;" horiz-adv-x="0" 
d="M-38 579h-399v96h296v76h103v-172z" />
    <glyph glyph-name="uni0E36" unicode="&#xe36;" horiz-adv-x="0" 
d="M-93 652c18.667 0 28 9.33301 28 28s-9.33301 28 -28 28c-19.333 0 -29 -9.33301 -29 -28s9.66699 -28 29 -28zM-187 675c0.666992 29.333 9.00098 53 25.001 71c17.333 18.667 39.666 28 66.999 28c26 0 48.333 -9 67 -27c18 -18.667 27 -41 27 -67
c0 -28 -9.33301 -51.667 -28 -71c-19.333 -20 -43.333 -30 -72 -30h-336v96h250z" />
    <glyph glyph-name="uni0E37" unicode="&#xe37;" horiz-adv-x="0" 
d="M-38 579h-399v96h200v70h82v-70h31v70h86v-166z" />
    <glyph glyph-name="uni0E38" unicode="&#xe38;" horiz-adv-x="0" 
d="M-38 -278h-99v116c0 7.33301 -3.33301 11 -10 11h-49v93h92c19.333 0 35.333 -7 48 -21c12 -14 18 -31 18 -51v-148z" />
    <glyph glyph-name="uni0E39" unicode="&#xe39;" horiz-adv-x="0" 
d="M-38 -166c0 -37.333 -11.334 -66.667 -34.001 -88c-23.333 -22 -55.666 -33 -96.999 -33c-40 0 -71 11 -93 33c-22 20.667 -33 48.667 -33 84v15h-45v97h138v-112c0 -18 11 -27 33 -27c22.667 0 34 10.333 34 31v108h97v-108z" />
    <glyph glyph-name="uni0E3A" unicode="&#xe3a;" horiz-adv-x="0" 
d="M-50 -169c-14.667 -14 -31.667 -21.001 -51 -21.001s-36.333 7 -51 21s-22 30.333 -22 49s7.33301 35.334 22 50.001c14.667 14 31.667 21 51 21s36.333 -7 51 -21c14 -14 21 -30.667 21 -50c0 -18.667 -7 -35 -21 -49z" />
    <glyph glyph-name="uni0E3F" unicode="&#xe3f;" horiz-adv-x="540" 
d="M288 -88h-41v88h-182v607h182v90h41v-90c54.667 0 97.667 -13.333 129 -40c32.667 -28 49 -67 49 -117c0 -64 -29.333 -109.333 -88 -136c68 -21.333 102 -69.333 102 -144c0 -56 -18.667 -99 -56 -129c-34 -27.333 -79.333 -41 -136 -41v-88zM288 97
c44 0 66 26.667 66 80c0 59.333 -22 89 -66 89v-169zM288 362c37.333 0 56 26.333 56 79c0 20.667 -5.33301 37.667 -16 51c-10.667 12 -24 18 -40 18v-148zM247 97v169h-60v-169h60zM247 362v148h-60v-148h60z" />
    <glyph glyph-name="uni0E40" unicode="&#xe40;" horiz-adv-x="197" 
d="M161 0h-119v512h119v-512z" />
    <glyph glyph-name="uni0E41" unicode="&#xe41;" horiz-adv-x="404" 
d="M352 0h-109v521h109v-521zM161 0h-109v521h109v-521z" />
    <glyph glyph-name="uni0E42" unicode="&#xe42;" horiz-adv-x="261" 
d="M209 0l-119.999 0.000976562v577c0 67.333 -24.667 112.666 -74 135.999l-20 48c46.667 67.333 113.334 101 200.001 101c65.333 0 123.666 -15.333 174.999 -46l-13 -93c-46.667 27.333 -97.334 41 -152.001 41c-33.333 0 -63.333 -8.33301 -90 -25
c62.667 -30 94 -86.667 94 -170v-569z" />
    <glyph glyph-name="uni0E43" unicode="&#xe43;" horiz-adv-x="245" 
d="M193 0h-120.001v553c0 34 17.333 68.333 52 103c34 34.667 51 61.667 51 81c0 25.333 -18.333 38 -55 38c-39.333 0 -74.666 -23.333 -105.999 -70l-56 61c41.333 66 98.333 99 171 99c48.667 0 86.667 -11.667 114 -35c25.333 -21.333 38 -49.333 38 -84
c0 -31.333 -14.667 -64.333 -44 -99c-30 -34 -45 -68 -45 -102v-545z" />
    <glyph glyph-name="uni0E44" unicode="&#xe44;" horiz-adv-x="261" 
d="M210 0l-120 0.00195312v593c0 71.333 25 122.666 75 153.999h-228v87h350v-76c-51.333 -20.667 -77 -66.334 -77 -137.001v-621z" />
    <glyph glyph-name="uni0E45" unicode="&#xe45;" horiz-adv-x="443" 
d="M405 -200l-119 -0.000976562v527c0 65.333 -29 98 -87 98c-54.667 0 -106.667 -24 -156 -72l-39 81c53.333 58.667 121 88 203 88c62 0 110.667 -18 146 -54c34.667 -35.333 52 -84.666 52 -147.999v-520z" />
    <glyph glyph-name="uni0E46" unicode="&#xe46;" horiz-adv-x="528" 
d="M476 -189h-120.001v571c0 27.333 -11.333 45 -34 53l-64 -56l-71 60c-30.667 -4 -46 -20.667 -46 -50c0 -10.667 4.33301 -20 13 -28c8.66699 -9.33301 19 -14 31 -14c13.333 0 26 2.33301 38 7l7 -75c-20 -6.66699 -38.667 -10 -56 -10
c-33.333 0 -62.666 10.667 -87.999 32c-28 23.333 -42 53 -42 89c0 39.333 14.667 71 44 95c26.667 22 61 35 103 39l67 -62l60 61c46.667 -2.66699 85 -18.667 115 -48c28.667 -29.333 43 -64.333 43 -105v-559z" />
    <glyph glyph-name="uni0E47" unicode="&#xe47;" horiz-adv-x="0" 
d="M-80 575l-73.001 -0.000976562c-30 0 -53.333 13.333 -70 40c-14.667 -26 -44 -39 -88 -39c-31.333 0 -57 10 -77 30s-30 45 -30 75c0 28.667 10.333 53.334 31 74.001c24.667 24 58.334 36 101.001 36h88c26.667 0 40 11 40 33v12h88v-27c0 -26 -9 -48 -27 -66
c-18.667 -19.333 -42.667 -29 -72 -29h-115c-26 0 -39 -10 -39 -30c0 -18.667 13 -28 39 -28c27.333 0 48 8.33301 62 25c13.333 -16.667 32.333 -25 57 -25h85v-81z" />
    <glyph glyph-name="uni0E48" unicode="&#xe48;" horiz-adv-x="0" 
d="M-43 788h-92v140h92v-140z" />
    <glyph glyph-name="uni0E49" unicode="&#xe49;" horiz-adv-x="0" 
d="M46 788h-195c-14 0 -25.667 4.66699 -35 14c-10 9.33301 -15 21 -15 35v20c0 8.66699 -4 13 -12 13h-52v72h79c33.333 0 50 -15.333 50 -46v-14c0 -12 5.66699 -18 17 -18h163v-76z" />
    <glyph glyph-name="uni0E4A" unicode="&#xe4a;" horiz-adv-x="0" 
d="M-81 788l-10 25c9.33301 5.33301 14 12 14 20c0 10.667 -4.33301 16 -13 16l-50 -42l-47 42c-8.66699 0 -13 -4.66699 -13 -14s4.66699 -17.666 14 -24.999l-13 -23h-55c-11.333 19.333 -17 37.666 -17 54.999c0 20 7 37.667 21 53c15.333 16 36.333 25.333 63 28l47 -53
l45 53c49.333 -5.33301 74 -25.666 74 -60.999c0 -9.33301 -2 -16.333 -6 -21c16.667 6 25 25 25 57c0 15.333 -3.66699 28.666 -11 39.999h82c2.66699 -12 4 -24.333 4 -37c0 -31.333 -11 -58 -33 -80s-48.333 -33 -79 -33h-42z" />
    <glyph glyph-name="uni0E4B" unicode="&#xe4b;" horiz-adv-x="0" 
d="M11 828l-59 3l2 -43h-88l2 43l-59 -3v73l59 -3l-2 43h88l-2 -43l59 3v-73z" />
    <glyph glyph-name="uni0E4C" unicode="&#xe4c;" horiz-adv-x="0" 
d="M35 775h-96.001c-11.333 0 -17 -5 -17 -15v-37h-94v42c0 29.333 10.667 53.333 32 72c20.667 18 46.334 27 77.001 27h98v-89z" />
    <glyph glyph-name="uni0E4D" unicode="&#xe4d;" horiz-adv-x="0" 
d="M-7 654c0 -25.333 -9 -47 -27 -65s-39.667 -27 -65 -27s-47 9 -65 27s-27 39.667 -27 65s9 47 27 65s39.667 27 65 27s47 -9 65 -27s27 -39.667 27 -65zM-99 623c20.667 0 31 10.667 31 32c0 20.667 -10.333 31 -31 31s-31 -10.333 -31 -31c0 -21.333 10.333 -32 31 -32z
" />
    <glyph glyph-name="uni0E4E" unicode="&#xe4e;" horiz-adv-x="0" 
 />
    <glyph glyph-name="uni0E4F" unicode="&#xe4f;" horiz-adv-x="528" 
d="M461 200c0 -54 -19 -100 -57 -138s-83.667 -57 -137 -57s-99 19 -137 57s-57 84 -57 138c0 53.333 19 99 57 137s83.667 57 137 57s99 -19 137 -57s57 -83.667 57 -137zM383 83c32 32.667 48 71.667 48 117s-16 84 -48 116s-70.667 48 -116 48s-84 -16 -116 -48
s-48 -70.667 -48 -116s16 -84.333 48 -117c32 -32 70.667 -48 116 -48s84 16 116 48zM379 200c0 -31.333 -11 -58 -33 -80s-48.333 -33 -79 -33c-31.333 0 -58 11 -80 33s-33 48.333 -33 79c0 31.333 11 58 33 80s48.333 33 79 33c31.333 0 58 -11 80 -33s33 -48.333 33 -79
zM322 144c15.333 15.333 23 34 23 56c0 21.333 -7.66699 39.666 -23 54.999s-34 23 -56 23c-21.333 0 -39.666 -7.66699 -54.999 -23s-23 -34 -23 -56c0 -21.333 7.66699 -39.666 23 -54.999s34 -23 56 -23c21.333 0 39.666 7.66699 54.999 23z" />
    <glyph glyph-name="uni0E50" unicode="&#xe50;" horiz-adv-x="535" 
d="M504 199c0 -68.667 -22.667 -121 -68 -157c-41.333 -32.667 -97.333 -49 -168 -49s-126.667 16.333 -168 49c-45.333 36 -68 88.333 -68 157s22.667 121 68 157c41.333 32.667 97.333 49 168 49s126.667 -16.333 168 -49c45.333 -36 68 -88.333 68 -157zM352 114
c24 20.667 36 49 36 85s-12 64.333 -36 85c-21.333 18.667 -49.333 28 -84 28s-63 -9.33301 -85 -28c-23.333 -20 -35 -48.333 -35 -85s11.667 -65 35 -85c22 -18.667 50.333 -28 85 -28s62.667 9.33301 84 28z" />
    <glyph glyph-name="uni0E51" unicode="&#xe51;" horiz-adv-x="527" 
d="M203 -91l10.998 89h28c92.667 0 139 57.333 139 172c0 90.667 -41.667 136 -125 136c-31.333 0 -58 -10 -80 -30s-33 -43.667 -33 -71c0 -56 24.333 -84 73 -84c24.667 0 47 5.66699 67 17l7 -86c-23.333 -14.667 -51.666 -22 -84.999 -22
c-49.333 0 -89.666 14 -120.999 42c-36 31.333 -54 75.666 -54 132.999c0 56.667 21.333 103.334 64 140.001s97 55 163 55c75.333 0 134 -20.333 176 -61c42 -40 63 -96.333 63 -169c0 -80 -22.333 -143.333 -67 -190c-45.333 -47.333 -107 -71 -185 -71h-41z" />
    <glyph glyph-name="uni0E52" unicode="&#xe52;" horiz-adv-x="593" 
d="M548 180c0 -48.667 -16.998 -90.668 -50.998 -126.001c-34.667 -36 -75.667 -54 -123 -54h-156c-52 0 -94 17.333 -126 52c-31.333 33.333 -47 75.666 -47 126.999v313h104v-313c0 -23.333 7.33301 -41.666 22 -54.999c13.333 -13.333 30.333 -20 51 -20h152
c18.667 0 35 7.33301 49 22s21 32.667 21 54v67c0 34 -12.333 53 -37 57l-58 -59l-59 59c-18.667 -4 -28 -15.667 -28 -35c0 -26 20.333 -42.667 61 -50l-25 -71c-82 9.33301 -123 50.333 -123 123c0 33.333 10.333 62 31 86c21.333 24 49.666 38.667 84.999 44l58 -70
c23.333 34.667 40 57.667 50 69c43.333 -2 78.666 -17.333 105.999 -46c28.667 -29.333 43 -67.666 43 -114.999v-59z" />
    <glyph glyph-name="uni0E53" unicode="&#xe53;" horiz-adv-x="544" 
d="M498 0l-104 -0.000976562v231c0 33.333 -15.333 51.333 -46 54l-72 -82l-79 82c-38.667 -16 -58 -46.667 -58 -92c0 -33.333 10.333 -60 31 -80c18.667 -18 41.667 -27 69 -27c26.667 0 49.334 4.66699 68.001 14l9 -90c-24.667 -11.333 -53.334 -17 -86.001 -17
c-54.667 0 -100.334 18 -137.001 54c-38 38 -57 86.667 -57 146c0 104.667 55 173 165 205l75 -87c45.333 56.667 68 85.334 68 86.001c44.667 -3.33301 81.334 -19.333 110.001 -48c29.333 -30.667 44 -70.667 44 -120v-229z" />
    <glyph glyph-name="uni0E54" unicode="&#xe54;" horiz-adv-x="539" 
d="M490 0h-56.001c-46 -0 -81.333 10.333 -106 31c-25.333 -25.333 -59.333 -38 -102 -38c-58 0 -104 18 -138 54s-51 84 -51 144c0 66.667 22 118.667 66 156c40.667 34.667 94.334 52 161.001 52h71c46 0 69 18.667 69 56v37h107v-38
c0 -47.333 -14.667 -84.666 -44 -111.999c-28.667 -27.333 -68 -41 -118 -41h-84c-81.333 0 -122 -36.667 -122 -110c0 -68.667 27.333 -103 82 -103c16.667 0 34.667 4.33301 54 13c-10.667 15.333 -16 34.666 -16 57.999c0 31.333 11.333 57 34 77c22 18.667 49 28 81 28
h78l-20 -90h-45c-17.333 0 -26 -8.33301 -26 -25c0 -34 25.333 -51 76 -51h63z" />
    <glyph glyph-name="uni0E55" unicode="&#xe55;" horiz-adv-x="539" 
d="M272 392c22 0 33.001 11.332 33.001 33.999c0 8.66699 -3.33301 16.334 -10 23.001s-14.334 10 -23.001 10c-22.667 0 -34 -11 -34 -33c0 -22.667 11.333 -34 34 -34zM490.001 -0.000976562h-55.999c-46 0 -81.333 10.333 -106 31c-25.333 -25.333 -59.333 -38 -102 -38
c-58 0 -104 18 -138 54s-51 84 -51 144c0 108 52 174.667 156 200c-6.66699 8.66699 -10 19.667 -10 33c0 26.667 8.66699 48 26 64c16 15.333 36.667 23 62 23s46.666 -7.66699 63.999 -23c17.333 -16 26 -37 26 -63c0 -10.667 -2 -19 -6 -25c32.667 4.66699 49 23 49 55
v37h107v-38c0 -47.333 -14.667 -84.666 -44 -111.999c-28.667 -27.333 -68 -41 -118 -41h-84c-81.333 0 -122 -36.667 -122 -110c0 -68.667 27.333 -103 82 -103c16.667 0 34.667 4.33301 54 13c-10.667 15.333 -16 34.666 -16 57.999c0 31.333 11.333 57 34 77
c22 18.667 49 28 81 28h78l-20 -90h-45c-17.333 0 -26 -8.33301 -26 -25c0 -34 25.333 -51 76 -51h63z" />
    <glyph glyph-name="uni0E56" unicode="&#xe56;" horiz-adv-x="534" 
d="M214 176c-6.66699 -8 -9.99805 -18.6699 -9.99805 -32.0029c0 -15.333 7 -28.666 21 -39.999c15.333 -13.333 34.333 -20 57 -20c35.333 0 63.666 11.333 84.999 34c20.667 22 31 49.333 31 82c0 34.667 -10.667 62.334 -32 83.001c-22 22 -52.333 33 -91 33
c-54.667 0 -97 -20.667 -127 -62h-70l-59 238h105l29 -140c34 38.667 80.333 58 139 58c60 0 110 -19.667 150 -59c39.333 -39.333 59 -89.666 59 -150.999c0 -59.333 -17.333 -108 -52 -146c-38 -40.667 -89.667 -61 -155 -61c-58.667 0 -105.334 13.333 -140.001 40
c-34 26 -51 61 -51 105c0 37.333 13.667 66 41 86z" />
    <glyph glyph-name="uni0E57" unicode="&#xe57;" horiz-adv-x="691" 
d="M643 162c0 -47.333 -14.333 -86.334 -43 -117.001c-28.667 -30 -64.667 -45 -108 -45h-102v231c0 33.333 -15.333 51.333 -46 54l-72 -82l-75 82c-38.667 -16 -58 -46.667 -58 -92c0 -33.333 10.333 -60 31 -80c18.667 -18 41.667 -27 69 -27
c26.667 0 49.334 4.66699 68.001 14l9 -90c-24.667 -11.333 -53.334 -17 -86.001 -17c-54.667 0 -100.334 18 -137.001 54c-38 38 -57 86.667 -57 146c0 104.667 55 173 165 205l71 -87c45.333 56.667 68 85.334 68 86.001c44.667 -3.33301 81.334 -19.333 110.001 -48
c29.333 -30.667 44 -70.667 44 -120v-134c30 0 45 18.667 45 56v341h104v-330z" />
    <glyph glyph-name="uni0E58" unicode="&#xe58;" horiz-adv-x="521" 
d="M358 95c20.667 10 31.001 28.668 31.001 56.001c0 30 -16.667 47.333 -50 52l28 65c35.333 -2.66699 64.333 -16.334 87 -41.001c21.333 -24 32 -51.333 32 -82c0 -44 -15 -80.333 -45 -109c-28 -26.667 -61 -40 -99 -40l-68 81c-38.667 -54 -58.334 -81 -59.001 -81
c-50 0 -90.667 12.667 -122 38c-34 26.667 -51 63 -51 109v69c0 50.667 16.333 93 49 127c34.667 36 79.667 54 135 54h79c44 0 66 18.667 66 56v37h105v-38c0 -48 -13 -85.667 -39 -113c-27.333 -27.333 -66.333 -41 -117 -41h-89c-55.333 0 -83 -28.667 -83 -86v-63
c0 -30 16.667 -47 50 -51c0.666992 0 25.667 30.667 75 92z" />
    <glyph glyph-name="uni0E59" unicode="&#xe59;" horiz-adv-x="542" 
d="M451 0l-108 0.000976562l-97 266c-8 24.667 -24.333 37 -49 37c-39.333 0 -59 -34.667 -59 -104c0 -34.667 6 -62.334 18 -83.001c10.667 -19.333 23.334 -29 38.001 -29c19.333 0 36.666 7 51.999 21l24 -84c-22 -20.667 -49 -31 -81 -31
c-42.667 0 -78.334 18.333 -107.001 55c-30 38 -45 88.333 -45 151c0 61.333 15 111.333 45 150c28.667 37.333 65.667 56 111 56c44 0 77.667 -17.333 101 -52c9.33301 34.667 30 52 62 52c26.667 0 45.334 -14 56.001 -42l23 129h98l-46 -228h-77
c-9.33301 31.333 -24 47 -44 47c-9.33301 0 -16 -6.33301 -20 -19z" />
    <glyph glyph-name="uni0E5B" unicode="&#xe5b;" horiz-adv-x="834" 
d="M682 189c0 -34.667 -12.334 -58.667 -37.001 -72l-203 -104v239c0 18 6 30.333 18 37l145 74c8.66699 4.66699 18.334 7 29.001 7c32 0 48 -18 48 -54v-127zM415.999 0l-264 135v260c0 24.667 9.66699 42 29 52l164 84c24.667 12.667 47.667 19 69 19
c20.667 0 45.667 -7 75 -21l115 -57c16 -8 24 -20 24 -36c0 -19.333 -11 -34.333 -33 -45l-148 -75c-20.667 -10.667 -31 -31 -31 -61v-255z" />
    <glyph glyph-name="endash" unicode="&#x2013;" horiz-adv-x="439" 
d="M437 194h-435v80h435v-80z" />
    <glyph glyph-name="emdash" unicode="&#x2014;" horiz-adv-x="873" 
d="M871 194h-869v80h869v-80z" />
    <glyph glyph-name="quoteleft" unicode="&#x2018;" horiz-adv-x="246" 
d="M159 389h-127l79 218h103z" />
    <glyph glyph-name="quoteright" unicode="&#x2019;" horiz-adv-x="246" 
d="M134 389h-102l55 218h127z" />
    <glyph glyph-name="quotesinglbase" unicode="&#x201a;" horiz-adv-x="246" 
d="M134 -96h-102l55 218h127z" />
    <glyph glyph-name="quotedblleft" unicode="&#x201c;" horiz-adv-x="422" 
d="M159 389h-127l79 218h103zM336 389h-128l79 218h103z" />
    <glyph glyph-name="quotedblright" unicode="&#x201d;" horiz-adv-x="422" 
d="M134 389h-102l55 218h127zM310 389h-102l56 218h126z" />
    <glyph glyph-name="quotedblbase" unicode="&#x201e;" horiz-adv-x="422" 
d="M310 -96h-102l56 218h126zM134 -96h-102l55 218h127z" />
    <glyph glyph-name="dagger" unicode="&#x2020;" 
d="M299 0h-111v378h-135v90h135v139h111v-139h135v-90h-135v-378z" />
    <glyph glyph-name="daggerdbl" unicode="&#x2021;" 
d="M434 128h-135v-128h-111v128h-135v85h135v184h-135v85h135v125h111v-125h135v-85h-135v-184h135v-85z" />
    <glyph glyph-name="bullet" unicode="&#x2022;" horiz-adv-x="439" 
d="M327 196c-28.667 -28.667 -64.667 -43.665 -108 -44.998c-42.667 0.666992 -78.667 16 -108 46c-28.667 29.333 -43 64.666 -43 105.999c0 42 14.333 77.667 43 107c29.333 29.333 65.333 44 108 44c43.333 0 79.333 -14.333 108 -43c29.333 -29.333 44 -65.333 44 -108
s-14.667 -78.334 -44 -107.001z" />
    <glyph glyph-name="ellipsis" unicode="&#x2026;" horiz-adv-x="873" 
d="M208 0h-122v122h122v-122zM497 0h-121v122h121v-122zM787 0h-122v122h122v-122z" />
    <glyph glyph-name="perthousand" unicode="&#x2030;" horiz-adv-x="873" 
d="M137 -19h-72l373 645h71zM864 143c0 -102 -40.667 -153 -122 -153s-122 51 -122 153c0 98 40.667 147 122 147s122 -49 122 -147zM742 52c28 0 42 28 42 84c0 32.667 -2 54.667 -6 66c-5.33301 17.333 -17.333 26 -36 26s-30.667 -8.66699 -36 -26
c-4 -11.333 -6 -33.333 -6 -66c0 -56 14 -84 42 -84zM572 143c0 -102 -40.667 -153 -122 -153s-122 51 -122 153c0 98 40.667 147 122 147s122 -49 122 -147zM450 52c28 0 42 28 42 84c0 32.667 -2 54.667 -6 66c-5.33301 17.333 -17.333 26 -36 26
s-30.667 -8.66699 -36 -26c-4 -11.333 -6 -33.333 -6 -66c0 -56 14 -84 42 -84zM255 470c0 -102 -40.667 -153 -122 -153s-122 51 -122 153c0 98 40.667 147 122 147s122 -49 122 -147zM133 379c28 0 42 28 42 84c0 32.667 -2 54.667 -6 66
c-5.33301 17.333 -17.333 26 -36 26s-30.667 -8.66699 -36 -26c-4 -11.333 -6 -33.333 -6 -66c0 -56 14 -84 42 -84z" />
    <glyph glyph-name="guilsinglleft" unicode="&#x2039;" horiz-adv-x="293" 
d="M257 56h-110l-102 178l102 178h110l-96 -178z" />
    <glyph glyph-name="guilsinglright" unicode="&#x203a;" horiz-adv-x="293" 
d="M146 56h-109l95 178l-95 178h109l103 -178z" />
    <glyph glyph-name="fraction" unicode="&#x2044;" horiz-adv-x="149" 
d="M-71 -19h-71l362 645h71z" />
    <glyph glyph-name="Euro" unicode="&#x20ac;" 
d="M503 7c-34 -11.333 -76 -16.998 -126 -16.998c-71.333 0 -133.333 19.667 -186 59c-54.667 41.333 -90 97 -106 167h-86l13 53h65c-2 23.333 -2 46 0 68h-78l13 53h73c17.333 67.333 52 121.666 104 162.999c54 42.667 116.333 64 187 64c52 0 100 -7.66699 144 -23
l-23 -91c-26.667 14 -60.667 21 -102 21c-91.333 0 -150.333 -44.667 -177 -134h254l-13 -53h-255c-2.66699 -22.667 -2.66699 -45.334 0 -68.001h239l-12 -53h-213c27.333 -87.333 86 -131 176 -131c40.667 0 75 6.33301 103 19z" />
    <glyph glyph-name="trademark" unicode="&#x2122;" horiz-adv-x="873" 
d="M829 245h-85v256h-2l-92 -256h-65l-92 256h-2v-256h-85v362h126l86 -226l85 226h126v-362zM236 245h-91v292h-101v70h293v-70h-101v-292z" />
    <glyph glyph-name="partialdiff" unicode="&#x2202;" horiz-adv-x="480" 
d="M346 249c-32 39.333 -69.334 58.999 -112.001 58.999c-34.667 0 -62 -12.667 -82 -38c-18 -23.333 -27 -52.666 -27 -87.999c0 -34 8.33301 -62.333 25 -85c18 -25.333 43.667 -38 77 -38c38.667 0 69.334 19.667 92.001 59c18.667 32.667 28 69.667 28 111z
M59.999 569.999c49.333 38 98.999 56.999 148.999 56.999c82 0 143.333 -33.667 184 -101c33.333 -55.333 50 -126.666 50 -213.999c0 -214.667 -73 -322 -219 -322c-56.667 0 -102.334 19 -137.001 57c-34 36 -51 82.667 -51 140c0 54.667 16.667 100 50 136
c34.667 36 79.334 54 134.001 54c46.667 0 89.334 -16.667 128.001 -50c0 64.667 -9.66699 116.667 -29 156c-23.333 47.333 -59 71 -107 71c-33.333 0 -67.333 -13.667 -102 -41z" />
    <glyph glyph-name="Delta" unicode="&#x2206;" horiz-adv-x="598" 
d="M457 85l-165 426l-156 -426h321zM589 0h-579l236 619h96z" />
    <glyph glyph-name="product" unicode="&#x220f;" horiz-adv-x="644" 
d="M588 -186h-94v784h-344v-784h-93v869h531v-869z" />
    <glyph glyph-name="summation" unicode="&#x2211;" horiz-adv-x="563" 
d="M539 -186h-515v75l266 364l-255 357v73h493v-85h-369l243 -344l-258 -356h395v-84z" />
    <glyph glyph-name="minus" unicode="&#x2212;" horiz-adv-x="525" 
d="M483 175h-441v90h441v-90z" />
    <glyph glyph-name="radical" unicode="&#x221a;" horiz-adv-x="465" 
d="M291 -186h-88l-133 277l-44 -20l-34 74l124 57l115 -245l148 726h95z" />
    <glyph glyph-name="infinity" unicode="&#x221e;" horiz-adv-x="704" 
d="M185 153c39.333 0 79.001 23.667 119.001 71c-50 50 -90.333 75 -121 75c-20.667 0 -37.334 -7.33301 -50.001 -22c-12 -14 -18 -31.333 -18 -52c0 -48 23.333 -72 70 -72zM589.001 225c0 22 -6.00195 40 -18.002 54c-13.333 14 -30.666 21 -51.999 21
c-32.667 0 -72.334 -25.667 -119.001 -77c44.667 -47.333 85.334 -71 122.001 -71c20.667 0 37.334 7.33301 50.001 22c11.333 13.333 17 30.333 17 51zM519.999 72c-50 0 -106.001 32.333 -168.001 97c-63.333 -63.333 -119 -95 -167 -95c-44 0 -79.333 14.333 -106 43
c-26 28 -39 64.333 -39 109c0 43.333 13 79.333 39 108c26 30 60.667 45 104 45c54.667 0 111 -34.333 169 -103c62.667 69.333 119 104 169 104c42.667 0 77.334 -14.667 104.001 -44c25.333 -28.667 38 -64.667 38 -108c0 -45.333 -12.333 -82.333 -37 -111
c-26.667 -30 -62 -45 -106 -45z" />
    <glyph glyph-name="integral" unicode="&#x222b;" horiz-adv-x="525" 
d="M294 35c0 -68 -4.66992 -116 -14.0029 -144c-17.333 -51.333 -53.666 -77 -108.999 -77c-21.333 0 -40.666 5 -57.999 15c-20 12 -30 28 -30 48c0 28 14 42 42 42c18.667 0 32.334 -9.66699 41.001 -29s15 -29 19 -29c11.333 0 17 9.66699 17 29l-3 98v465
c0 73.333 4.33301 123.333 13 150c16.667 53.333 53.667 80 111 80c22 0 41.667 -5 59 -15c21.333 -12 32 -28 32 -48c0 -12 -4.33301 -22.333 -13 -31c-8.66699 -8 -19 -12 -31 -12c-20 0 -34 9.66699 -42 29c-8 18.667 -14.667 28 -20 28c-11.333 0 -17 -9.33301 -17 -28
l2 -116z" />
    <glyph glyph-name="approxequal" unicode="&#x2248;" horiz-adv-x="519" 
d="M491 209c-2.66699 -40.667 -13.6689 -74 -33.002 -100c-22.667 -30 -53.667 -45 -93 -45c-24.667 0 -64 10 -118 30c-54.667 20 -89.667 30 -105 30c-31.333 0 -50.333 -20 -57 -60h-59c10.667 97.333 52.334 146 125.001 146c24.667 0 63 -9.66699 115 -29
s89 -29 111 -29c30.667 0 49.334 19 56.001 57h58zM492.998 386c-10 -96.667 -52 -145 -126 -145c-25.333 0 -65 10 -119 30s-88.667 30 -104 30c-28.667 0 -47.667 -20 -57 -60h-59c10.667 97.333 52 146 124 146c24.667 0 63 -9.66699 115 -29c52.667 -20 90 -30 112 -30
c30.667 0 49 19.333 55 58h59z" />
    <glyph glyph-name="notequal" unicode="&#x2260;" horiz-adv-x="519" 
d="M485 86h-248l-67 -132l-78 40l48 92h-106v89h150l53 101h-203v88h248l67 132l77 -39l-47 -93h106v-88h-151l-52 -101h203v-89z" />
    <glyph glyph-name="lessequal" unicode="&#x2264;" horiz-adv-x="519" 
d="M485 -30h-451v87h451v-87zM485 87l-451 149v90l451 155v-93l-331 -106l331 -102v-93z" />
    <glyph glyph-name="greaterequal" unicode="&#x2265;" horiz-adv-x="519" 
d="M485 -30h-451v87h451v-87zM485 236l-451 -149v93l330 102l-330 106v93l451 -155v-90z" />
    <glyph glyph-name="lozenge" unicode="&#x25ca;" horiz-adv-x="519" 
d="M258 56l106 253l-106 252l-103 -252zM300 -30h-82l-153 339l153 340h82l154 -340z" />
    <glyph glyph-name="uni0E10.alt1" unicode="&#xf700;" horiz-adv-x="524" 
d="M259 94c30 1.33301 55.001 16.666 75.001 45.999c22 32 33 74.333 33 127c0 110.667 -44.333 166 -133 166c-57.333 0 -111.333 -26 -162 -78l-49 83c60.667 60.667 131 91 211 91c46 0 85 -9.33301 117 -28c0.666992 0 18 18.333 52 55h139l-113 -113
c38 -43.333 57 -102 57 -176c0 -79.333 -22 -143.666 -66 -192.999s-101 -74 -171 -74h-85l-44 183c-3.33301 13.333 -11.333 20 -24 20h-38v97h70c51.333 0 83.666 -25 96.999 -75z" />
    <glyph glyph-name="uni0E34.alt1" unicode="&#xf701;" horiz-adv-x="0" 
d="M-192 579h-362v96h362v-96z" />
    <glyph glyph-name="uni0E35.alt1" unicode="&#xf702;" horiz-adv-x="0" 
d="M-192 579h-362v96h254v76h108v-172z" />
    <glyph glyph-name="uni0E36.alt1" unicode="&#xf703;" horiz-adv-x="0" 
d="M-253 652c18.667 0 28 9.33301 28 28s-9.33301 28 -28 28c-19.333 0 -29 -9.33301 -29 -28s9.66699 -28 29 -28zM-347 675c0 29.333 8.33398 53.333 25.001 72c17.333 18 39.666 27 66.999 27c26 0 48.333 -9 67 -27c18 -18.667 27 -41 27 -67
c0 -28 -9.33301 -51.667 -28 -71c-19.333 -20 -43.333 -30 -72 -30h-293v96h207z" />
    <glyph glyph-name="uni0E37.alt1" unicode="&#xf704;" horiz-adv-x="0" 
d="M-192 579h-362v96h163v70h82v-70h31v70h86v-166z" />
    <glyph glyph-name="uni0E48.alt1" unicode="&#xf705;" horiz-adv-x="0" 
d="M-213 579h-103v160h103v-160z" />
    <glyph glyph-name="uni0E49.alt1" unicode="&#xf706;" horiz-adv-x="0" 
d="M-83 579h-213c-14 0 -25.667 4.66699 -35 14c-10 9.33301 -15 21 -15 35v23c0 8.66699 -4 13 -12 13h-52v82h92c33.333 0 50 -15.333 50 -46v-19c0 -12 5.66699 -18 17 -18h168v-84z" />
    <glyph glyph-name="uni0E4A.alt1" unicode="&#xf707;" horiz-adv-x="0" 
d="M-247 579l-11.999 28.001c10 7.33301 15 15.666 15 24.999c0 11.333 -4.66699 17 -14 17l-56 -49l-53 49c-10 0 -15 -5 -15 -15c0 -12 5.33301 -22 16 -30l-15 -26h-63c-12.667 22.667 -19 43.667 -19 63c0 23.333 8 43.666 24 60.999c18 19.333 42 30.333 72 33l53 -60
c33.333 40 50 60.333 50 61c55.333 -5.33301 83 -29 83 -71c0 -11.333 -2 -19.666 -6 -24.999c18.667 7.33301 28 29.666 28 66.999c0 15.333 -4 31 -12 47h92c3.33301 -12 5 -26.333 5 -43c0 -37.333 -12.667 -68.666 -38 -93.999c-24.667 -25.333 -54.334 -38 -89.001 -38
h-46z" />
    <glyph glyph-name="uni0E4B.alt1" unicode="&#xf708;" horiz-adv-x="0" 
d="M-180 627l-71 3l3 -51h-105l3 51l-71 -3v86l71 -3l-3 51h105l-3 -51l71 3v-86z" />
    <glyph glyph-name="uni0E4C.alt1" unicode="&#xf709;" horiz-adv-x="0" 
d="M-179 635h-96c-11.333 0 -17 -5 -17 -15v-41h-108v50c0 30 10.333 55.333 31 76s45.667 31 75 31h115v-101z" />
    <glyph glyph-name="uni0E48.alt2" unicode="&#xf70a;" horiz-adv-x="0" 
d="M-46 579h-104v160h104v-160z" />
    <glyph glyph-name="uni0E49.alt2" unicode="&#xf70b;" horiz-adv-x="0" 
d="M45 579h-213c-14 0 -25.667 4.66699 -35 14c-10 9.33301 -15 21 -15 35v23c0 8.66699 -4 13 -12 13h-52v82h92c33.333 0 50 -15.333 50 -46v-19c0 -12 5.66699 -18 17 -18h168v-84z" />
    <glyph glyph-name="uni0E4A.alt2" unicode="&#xf70c;" horiz-adv-x="0" 
d="M-195 579l-11.999 28.001c10 7.33301 15 15.666 15 24.999c0 11.333 -4.66699 17 -14 17l-56 -49l-53 49c-10 0 -15 -5 -15 -15c0 -12 5.33301 -22 16 -30l-15 -26h-63c-12.667 22.667 -19 43.667 -19 63c0 23.333 8 43.666 24 60.999c18 19.333 42 30.333 72 33l53 -60
c33.333 40 50 60.333 50 61c55.333 -5.33301 83 -29 83 -71c0 -11.333 -2 -19.666 -6 -24.999c18.667 7.33301 28 29.666 28 66.999c0 15.333 -4 31 -12 47h92c3.33301 -12 5 -26.333 5 -43c0 -37.333 -12.667 -68.666 -38 -93.999c-24.667 -25.333 -54.334 -38 -89.001 -38
h-46z" />
    <glyph glyph-name="uni0E4B.alt2" unicode="&#xf70d;" horiz-adv-x="0" 
d="M23 627l-71 3l3 -51h-105l3 51l-71 -3v86l71 -3l-3 51h105l-3 -51l71 3v-86z" />
    <glyph glyph-name="uni0E4C.alt2" unicode="&#xf70e;" horiz-adv-x="0" 
d="M-4 635h-96c-11.333 0 -17 -5 -17 -15v-41h-108v50c0 30 10.333 55.333 31 76s45.667 31 75 31h115v-101z" />
    <glyph glyph-name="uni0E0D.alt1" unicode="&#xf70f;" horiz-adv-x="824" 
d="M786 181c0 -125.333 -69.332 -187.998 -207.999 -187.998c-139.333 0 -209 65.333 -209 196v138c0 68 -33.333 102 -100 102c-52 0 -90.333 -18.667 -115 -56l56 -72c-28 -18.667 -42 -44.334 -42 -77.001v-116c0 -10 4.66699 -15 14 -15h38v-93h-74
c-26.667 0 -49.667 9.66699 -69 29s-29 42.666 -29 69.999v116c0 35.333 14 65 42 89c0.666992 0 -19 22 -59 66c13.333 42 41.333 77.333 84 106c45.333 30.667 96.666 46 153.999 46c64 0 116.667 -18 158 -54s62 -81 62 -135v-151c0 -64 30 -96 90 -96
c58 0 87 29.667 87 89v336h120v-330z" />
    <glyph glyph-name="uni0E31.alt1" unicode="&#xf710;" horiz-adv-x="0" 
d="M29 574l-321 -0.000976562c-26 0 -47 7.66699 -63 23c-16 14.667 -24 33.334 -24 56.001v47h97v-24c0 -10 5.66699 -15 17 -15h294v-87z" />
    <glyph glyph-name="uni0E4D.alt1" unicode="&#xf711;" horiz-adv-x="0" 
d="M-190 654c0 -25.333 -9 -47 -27 -65s-39.667 -27 -65 -27s-47 9 -65 27s-27 39.667 -27 65s9 47 27 65s39.667 27 65 27s47 -9 65 -27s27 -39.667 27 -65zM-282 623c20.667 0 31 10.667 31 32c0 20.667 -10.333 31 -31 31s-31 -10.333 -31 -31
c0 -21.333 10.333 -32 31 -32z" />
    <glyph glyph-name="uni0E47.alt1" unicode="&#xf712;" horiz-adv-x="0" 
d="M-173 575l-73.001 -0.000976562c-30 0 -53.333 13.333 -70 40c-14.667 -26 -44 -39 -88 -39c-31.333 0 -57 10 -77 30s-30 45 -30 75c0 28.667 10.333 53.334 31 74.001c24.667 24 58.334 36 101.001 36h88c26.667 0 40 11 40 33v12h88v-27c0 -26 -9 -48 -27 -66
c-18.667 -19.333 -42.667 -29 -72 -29h-115c-26 0 -39 -10 -39 -30c0 -18.667 13 -28 39 -28c27.333 0 48 8.33301 62 25c13.333 -16.667 32.333 -25 57 -25h85v-81z" />
    <glyph glyph-name="uni0E48.alt3" unicode="&#xf713;" horiz-adv-x="0" 
d="M-200 788h-92v140h92v-140z" />
    <glyph glyph-name="uni0E49.alt3" unicode="&#xf714;" horiz-adv-x="0" 
d="M-59 788h-195c-14 0 -25.667 4.66699 -35 14c-10 9.33301 -15 21 -15 35v20c0 8.66699 -4 13 -12 13h-52v72h79c33.333 0 50 -15.333 50 -46v-14c0 -12 5.66699 -18 17 -18h163v-76z" />
    <glyph glyph-name="uni0E4A.alt3" unicode="&#xf715;" horiz-adv-x="0" 
d="M-173 788l-10 25c9.33301 5.33301 14 12 14 20c0 10.667 -4.33301 16 -13 16l-50 -42l-47 42c-8.66699 0 -13 -4.66699 -13 -14s4.66699 -17.666 14 -24.999l-13 -23h-55c-11.333 19.333 -17 37.666 -17 54.999c0 20 7 37.667 21 53c15.333 16 36.333 25.333 63 28
l47 -53l45 53c49.333 -5.33301 74 -25.666 74 -60.999c0 -9.33301 -2 -16.333 -6 -21c16.667 6 25 25 25 57c0 15.333 -3.66699 28.666 -11 39.999h82c2.66699 -12 4 -24.333 4 -37c0 -31.333 -11 -58 -33 -80s-48.333 -33 -79 -33h-42z" />
    <glyph glyph-name="uni0E4B.alt3" unicode="&#xf716;" horiz-adv-x="0" 
d="M-147 828l-59 3l2 -43h-88l2 43l-59 -3v73l59 -3l-2 43h88l-2 -43l59 3v-73z" />
    <glyph glyph-name="uni0E4C.alt3" unicode="&#xf717;" horiz-adv-x="0" 
d="M-130 775h-96.001c-11.333 0 -17 -5 -17 -15v-37h-94v42c0 29.333 10.667 53.333 32 72c20.667 18 46.334 27 77.001 27h98v-89z" />
    <glyph glyph-name="uni0E38.alt1" unicode="&#xf718;" horiz-adv-x="0" 
d="M-38 -478h-99v116c0 7.33301 -3.33301 11 -10 11h-49v93h92c19.333 0 35.333 -7 48 -21c12 -14 18 -31 18 -51v-148z" />
    <glyph glyph-name="uni0E39.alt1" unicode="&#xf719;" horiz-adv-x="0" 
d="M-42 -366c0 -37.333 -11.334 -66.667 -34.001 -88c-23.333 -22 -55.666 -33 -96.999 -33c-40 0 -71 11 -93 33c-22 20.667 -33 48.667 -33 84v15h-45v97h138v-112c0 -18 11 -27 33 -27c22.667 0 34 10.333 34 31v108h97v-108z" />
    <glyph glyph-name="uni0E3A.alt1" unicode="&#xf71a;" horiz-adv-x="0" 
d="M-50 -366c-14.667 -14 -31.667 -21.001 -51 -21.001s-36.333 7 -51 21s-22 30.333 -22 49s7.33301 35.334 22 50.001c14.667 14 31.667 21 51 21s36.333 -7 51 -21c14 -14 21 -30.667 21 -50c0 -18.667 -7 -35 -21 -49z" />
    <glyph glyph-name="uni0E0E.alt1" unicode="&#xf71b;" horiz-adv-x="550" 
d="M512 -200h-128.001c-30 28 -65 42 -105 42c-54.667 0 -101.334 -16.333 -140.001 -49l-31 91c40.667 40 89 60 145 60c56.667 0 103.334 -21 140.001 -63v446c0 32 -9.66699 57 -29 75s-45 27 -77 27c-51.333 0 -89.333 -18.667 -114 -56l56 -72
c-27.333 -18 -41 -43.667 -41 -77v-129c0 -24.667 -8.66699 -46.667 -26 -66c-18 -19.333 -38.667 -29 -62 -29h-78v93h37c6.66699 0 10 3.66699 10 11v111c0 36.667 13.333 66.334 40 89.001c0.666992 0 -19 22 -59 66c13.333 42.667 41.333 78 84 106
c44.667 30.667 95.667 46 153 46c64.667 0 118.334 -18 161.001 -54c42.667 -36.667 64 -82.334 64 -137.001v-531z" />
    <glyph glyph-name="uni0E0F.alt1" unicode="&#xf71c;" horiz-adv-x="550" 
d="M512 -200h-103l-95 73c-6.66699 -23.333 -22 -42.333 -46 -57c-22.667 -14.667 -46.667 -22 -72 -22c-44 0 -84 12.333 -120 37l23 92c30.667 -24 63 -36 97 -36c20.667 0 40 10 58 30c17.333 20 26.666 42.667 27.999 68l111 -76v418c0 32 -9.66699 57 -29 75
s-45 27 -77 27c-51.333 0 -89.333 -18.667 -114 -56l56 -72c-27.333 -18 -41 -43.667 -41 -77v-129c0 -24.667 -8.66699 -46.667 -26 -66c-18 -19.333 -38.667 -29 -62 -29h-78v93h37c6.66699 0 10 3.66699 10 11v111c0 36.667 13.333 66.334 40 89.001
c0.666992 0 -19 22 -59 66c13.333 42.667 41.333 78 84 106c44.667 30.667 95.667 46 153 46c64.667 0 118.334 -18 161.001 -54c42.667 -36.667 64 -82.334 64 -137.001v-531z" />
    <glyph glyph-name="uni0E2C.alt1" unicode="&#xf71d;" horiz-adv-x="579" 
d="M541 0l-101 -0.000976562l-150 227c-99.333 -151.333 -149.333 -227 -150 -227h-101v511h118v-273c0 -12 -2.66699 -32.667 -8 -62h3c8.66699 32.667 17.667 55 27 67l84 113h54l82 -113c9.33301 -18 18.333 -40.333 27 -67h3c-4 25.333 -6 46 -6 62v86
c0 12.667 -4.33301 23.334 -13 32.001c-8 8.66699 -17.333 13 -28 13h-23l-14 50l82 144h126l-90 -135c52 -18 78 -57.333 78 -118v-310z" />
    <glyph glyph-name="apple" unicode="&#xf8ff;" horiz-adv-x="834" 
d="M682 189c0 -34.667 -12.334 -58.667 -37.001 -72l-203 -104v239c0 18 6 30.333 18 37l145 74c8.66699 4.66699 18.334 7 29.001 7c32 0 48 -18 48 -54v-127zM415.999 0l-264 135v260c0 24.667 9.66699 42 29 52l164 84c24.667 12.667 47.667 19 69 19
c20.667 0 45.667 -7 75 -21l115 -57c16 -8 24 -20 24 -36c0 -19.333 -11 -34.333 -33 -45l-148 -75c-20.667 -10.667 -31 -31 -31 -61v-255z" />
    <glyph glyph-name=".null" horiz-adv-x="0" 
 />
    <glyph glyph-name="nonmarkingreturn" horiz-adv-x="195" 
 />
    <glyph glyph-name="uni0E33.alt1" horiz-adv-x="442" 
d="M404 0l-120.001 -0.000976562v327c0 65.333 -29 98 -87 98c-54.667 0 -106.667 -24 -156 -72l-39 81c53.333 58.667 121 88 203 88c62.667 0 111.334 -18 146.001 -54c35.333 -35.333 53 -84.666 53 -147.999v-320zM-190.001 653.999c0 -25.333 -9 -47 -27 -65
s-39.667 -27 -65 -27s-47 9 -65 27s-27 39.667 -27 65s9 47 27 65s39.667 27 65 27s47 -9 65 -27s27 -39.667 27 -65zM-282.001 622.999c20.667 0 31 10.667 31 32c0 20.667 -10.333 31 -31 31s-31 -10.333 -31 -31c0 -21.333 10.333 -32 31 -32z" />
    <glyph glyph-name="uni0E4E.alt1" horiz-adv-x="0" 
 />
  </font>
</defs>
</svg>
